<mxfile host="app.diagrams.net" modified="2024-01-05T13:11:17.862Z" agent="Mozilla/5.0 (Windows NT 10.0; Win64; x64) AppleWebKit/537.36 (KHTML, like Gecko) Chrome/120.0.0.0 Safari/537.36 Edg/120.0.0.0" etag="n3M3XM13q2BoJJrQ3pEI" version="22.1.16" type="github" pages="6">
  <diagram name="Página-1" id="LgLnZPeBpwjTRLAhEPR4">
    <mxGraphModel dx="1638" dy="891" grid="1" gridSize="10" guides="1" tooltips="1" connect="1" arrows="1" fold="1" page="1" pageScale="1" pageWidth="827" pageHeight="1169" math="0" shadow="0">
      <root>
        <mxCell id="0" />
        <mxCell id="1" parent="0" />
        <mxCell id="LEy9nO0lV_JYxe-C6kYJ-57" value="" style="rounded=1;whiteSpace=wrap;html=1;fillColor=#e51400;strokeColor=#B20000;opacity=60;fontColor=#ffffff;" parent="1" vertex="1">
          <mxGeometry x="106" y="30" width="70" height="390" as="geometry" />
        </mxCell>
        <mxCell id="LEy9nO0lV_JYxe-C6kYJ-56" value="" style="rounded=1;whiteSpace=wrap;html=1;fillColor=#ffcd28;strokeColor=#d79b00;opacity=60;gradientColor=#ffa500;" parent="1" vertex="1">
          <mxGeometry x="190" y="30" width="70" height="390" as="geometry" />
        </mxCell>
        <mxCell id="LEy9nO0lV_JYxe-C6kYJ-49" value="" style="rounded=1;whiteSpace=wrap;html=1;fillStyle=auto;opacity=20;fillColor=#6a00ff;strokeColor=#3700CC;fontColor=#ffffff;" parent="1" vertex="1">
          <mxGeometry y="316" width="270" height="60" as="geometry" />
        </mxCell>
        <mxCell id="LEy9nO0lV_JYxe-C6kYJ-42" value="" style="rounded=1;whiteSpace=wrap;html=1;fillColor=#f5f5f5;strokeColor=#666666;opacity=60;gradientColor=#b3b3b3;" parent="1" vertex="1">
          <mxGeometry x="280" y="30" width="70" height="390" as="geometry" />
        </mxCell>
        <mxCell id="LEy9nO0lV_JYxe-C6kYJ-44" value="" style="rounded=1;whiteSpace=wrap;html=1;fillColor=#e3c800;fontColor=#000000;strokeColor=#B09500;opacity=30;" parent="1" vertex="1">
          <mxGeometry x="362" y="30" width="70" height="390" as="geometry" />
        </mxCell>
        <mxCell id="LEy9nO0lV_JYxe-C6kYJ-41" value="" style="rounded=1;whiteSpace=wrap;html=1;fillStyle=auto;opacity=20;fillColor=#d80073;strokeColor=#A50040;fontColor=#ffffff;" parent="1" vertex="1">
          <mxGeometry x="600" y="30" width="70" height="410" as="geometry" />
        </mxCell>
        <mxCell id="LEy9nO0lV_JYxe-C6kYJ-40" value="" style="rounded=1;whiteSpace=wrap;html=1;fillStyle=auto;opacity=50;fillColor=#dae8fc;strokeColor=#6c8ebf;" parent="1" vertex="1">
          <mxGeometry y="230" width="770" height="60" as="geometry" />
        </mxCell>
        <mxCell id="LEy9nO0lV_JYxe-C6kYJ-38" value="" style="rounded=1;whiteSpace=wrap;html=1;fillStyle=auto;opacity=50;fillColor=#f8cecc;strokeColor=#b85450;" parent="1" vertex="1">
          <mxGeometry y="70" width="770" height="60" as="geometry" />
        </mxCell>
        <mxCell id="LEy9nO0lV_JYxe-C6kYJ-39" value="" style="rounded=1;whiteSpace=wrap;html=1;fillStyle=auto;opacity=50;fillColor=#d5e8d4;strokeColor=#82b366;" parent="1" vertex="1">
          <mxGeometry y="150" width="770" height="60" as="geometry" />
        </mxCell>
        <mxCell id="LEy9nO0lV_JYxe-C6kYJ-6" value="" style="sketch=0;pointerEvents=1;shadow=0;dashed=0;html=1;strokeColor=default;labelPosition=center;verticalLabelPosition=bottom;verticalAlign=top;outlineConnect=0;align=center;shape=mxgraph.office.users.users;fillColor=#2072B8;" parent="1" vertex="1">
          <mxGeometry x="529" y="80" width="50" height="40" as="geometry" />
        </mxCell>
        <mxCell id="LEy9nO0lV_JYxe-C6kYJ-7" value="" style="sketch=0;pointerEvents=1;shadow=0;dashed=0;html=1;strokeColor=default;labelPosition=center;verticalLabelPosition=bottom;verticalAlign=top;outlineConnect=0;align=center;shape=mxgraph.office.users.users;fillColor=#7FBA42;" parent="1" vertex="1">
          <mxGeometry x="529" y="240" width="50" height="40" as="geometry" />
        </mxCell>
        <mxCell id="LEy9nO0lV_JYxe-C6kYJ-8" value="" style="sketch=0;pointerEvents=1;shadow=0;dashed=0;html=1;strokeColor=default;labelPosition=center;verticalLabelPosition=bottom;verticalAlign=top;outlineConnect=0;align=center;shape=mxgraph.office.users.users;fillColor=#DA4026;" parent="1" vertex="1">
          <mxGeometry x="529" y="160" width="50" height="40" as="geometry" />
        </mxCell>
        <mxCell id="LEy9nO0lV_JYxe-C6kYJ-9" value="" style="sketch=0;pointerEvents=1;shadow=0;dashed=0;html=1;strokeColor=default;labelPosition=center;verticalLabelPosition=bottom;verticalAlign=top;outlineConnect=0;align=center;shape=mxgraph.office.users.user;fillColor=#2072B8;" parent="1" vertex="1">
          <mxGeometry x="454" y="80" width="40" height="40" as="geometry" />
        </mxCell>
        <mxCell id="LEy9nO0lV_JYxe-C6kYJ-10" value="" style="sketch=0;pointerEvents=1;shadow=0;dashed=0;html=1;strokeColor=default;labelPosition=center;verticalLabelPosition=bottom;verticalAlign=top;outlineConnect=0;align=center;shape=mxgraph.office.users.user;fillColor=#DA4026;" parent="1" vertex="1">
          <mxGeometry x="454" y="160" width="43" height="40" as="geometry" />
        </mxCell>
        <mxCell id="LEy9nO0lV_JYxe-C6kYJ-11" value="" style="sketch=0;pointerEvents=1;shadow=0;dashed=0;html=1;strokeColor=default;labelPosition=center;verticalLabelPosition=bottom;verticalAlign=top;outlineConnect=0;align=center;shape=mxgraph.office.users.user;fillColor=#7FBA42;" parent="1" vertex="1">
          <mxGeometry x="454" y="240" width="40" height="40" as="geometry" />
        </mxCell>
        <mxCell id="LEy9nO0lV_JYxe-C6kYJ-15" value="" style="sketch=0;pointerEvents=1;shadow=0;dashed=0;html=1;strokeColor=default;fillColor=#d80073;labelPosition=center;verticalLabelPosition=bottom;verticalAlign=top;outlineConnect=0;align=center;shape=mxgraph.office.users.administrator;fontColor=#ffffff;" parent="1" vertex="1">
          <mxGeometry x="610" y="300" width="50" height="46" as="geometry" />
        </mxCell>
        <mxCell id="LEy9nO0lV_JYxe-C6kYJ-22" value="Devs" style="rounded=1;whiteSpace=wrap;html=1;fontSize=10;" parent="1" vertex="1">
          <mxGeometry x="534" y="40" width="40" height="20" as="geometry" />
        </mxCell>
        <mxCell id="LEy9nO0lV_JYxe-C6kYJ-23" value="Team Lead" style="rounded=1;whiteSpace=wrap;html=1;fontSize=8;" parent="1" vertex="1">
          <mxGeometry x="454" y="40" width="40" height="20" as="geometry" />
        </mxCell>
        <mxCell id="LEy9nO0lV_JYxe-C6kYJ-24" value="Análise" style="rounded=1;whiteSpace=wrap;html=1;fontSize=10;" parent="1" vertex="1">
          <mxGeometry x="377" y="390" width="40" height="20" as="geometry" />
        </mxCell>
        <mxCell id="LEy9nO0lV_JYxe-C6kYJ-25" value="Arquitetura" style="rounded=1;whiteSpace=wrap;html=1;fontSize=9;" parent="1" vertex="1">
          <mxGeometry x="285" y="390" width="60" height="20" as="geometry" />
        </mxCell>
        <mxCell id="LEy9nO0lV_JYxe-C6kYJ-30" value="" style="sketch=0;pointerEvents=1;shadow=0;dashed=0;html=1;strokeColor=default;fillColor=#d80073;labelPosition=center;verticalLabelPosition=bottom;verticalAlign=top;outlineConnect=0;align=center;shape=mxgraph.office.users.users;fontColor=#ffffff;" parent="1" vertex="1">
          <mxGeometry x="610" y="360" width="50" height="40" as="geometry" />
        </mxCell>
        <mxCell id="LEy9nO0lV_JYxe-C6kYJ-31" value="B3" style="rounded=1;whiteSpace=wrap;html=1;fontSize=10;" parent="1" vertex="1">
          <mxGeometry x="800" y="70" width="80" height="20" as="geometry" />
        </mxCell>
        <mxCell id="LEy9nO0lV_JYxe-C6kYJ-32" value="YMS" style="rounded=1;whiteSpace=wrap;html=1;fontSize=10;" parent="1" vertex="1">
          <mxGeometry x="800" y="90" width="80" height="20" as="geometry" />
        </mxCell>
        <mxCell id="LEy9nO0lV_JYxe-C6kYJ-33" value="TSM" style="rounded=1;whiteSpace=wrap;html=1;fontSize=10;" parent="1" vertex="1">
          <mxGeometry x="800" y="150" width="80" height="20" as="geometry" />
        </mxCell>
        <mxCell id="LEy9nO0lV_JYxe-C6kYJ-34" value="GPED" style="rounded=1;whiteSpace=wrap;html=1;fontSize=10;" parent="1" vertex="1">
          <mxGeometry x="800" y="170" width="80" height="20" as="geometry" />
        </mxCell>
        <mxCell id="LEy9nO0lV_JYxe-C6kYJ-35" value="Rota Certa" style="rounded=1;whiteSpace=wrap;html=1;fontSize=10;" parent="1" vertex="1">
          <mxGeometry x="800" y="110" width="80" height="20" as="geometry" />
        </mxCell>
        <mxCell id="LEy9nO0lV_JYxe-C6kYJ-36" value="Totem" style="rounded=1;whiteSpace=wrap;html=1;fontSize=10;" parent="1" vertex="1">
          <mxGeometry x="800" y="230" width="80" height="20" as="geometry" />
        </mxCell>
        <mxCell id="LEy9nO0lV_JYxe-C6kYJ-37" value="Painel Chamadas" style="rounded=1;whiteSpace=wrap;html=1;fontSize=9;" parent="1" vertex="1">
          <mxGeometry x="800" y="250" width="80" height="20" as="geometry" />
        </mxCell>
        <mxCell id="LEy9nO0lV_JYxe-C6kYJ-17" value="1" style="rounded=1;whiteSpace=wrap;html=1;fillColor=#FFFFFF;" parent="1" vertex="1">
          <mxGeometry x="10" y="80" width="80" height="40" as="geometry" />
        </mxCell>
        <mxCell id="LEy9nO0lV_JYxe-C6kYJ-21" value="3" style="rounded=1;whiteSpace=wrap;html=1;fillColor=#FFFFFF;" parent="1" vertex="1">
          <mxGeometry x="10" y="240" width="80" height="40" as="geometry" />
        </mxCell>
        <mxCell id="LEy9nO0lV_JYxe-C6kYJ-28" value="Sustentação" style="rounded=1;whiteSpace=wrap;html=1;fillColor=#FFFFFF;fontSize=9;" parent="1" vertex="1">
          <mxGeometry x="605" y="410" width="60" height="20" as="geometry" />
        </mxCell>
        <mxCell id="LEy9nO0lV_JYxe-C6kYJ-18" value="2" style="rounded=1;whiteSpace=wrap;html=1;fillColor=#FFFFFF;" parent="1" vertex="1">
          <mxGeometry x="10" y="160" width="80" height="40" as="geometry" />
        </mxCell>
        <mxCell id="LEy9nO0lV_JYxe-C6kYJ-48" value="Produto" style="rounded=1;whiteSpace=wrap;html=1;fillColor=#FFFFFF;" parent="1" vertex="1">
          <mxGeometry x="10" y="326" width="80" height="40" as="geometry" />
        </mxCell>
        <mxCell id="LEy9nO0lV_JYxe-C6kYJ-50" value="PM" style="rounded=1;whiteSpace=wrap;html=1;fontSize=9;" parent="1" vertex="1">
          <mxGeometry x="120" y="390" width="40" height="20" as="geometry" />
        </mxCell>
        <mxCell id="LEy9nO0lV_JYxe-C6kYJ-51" value="PD" style="rounded=1;whiteSpace=wrap;html=1;fontSize=9;" parent="1" vertex="1">
          <mxGeometry x="210" y="390" width="40" height="20" as="geometry" />
        </mxCell>
        <mxCell id="6XTdwXwsE8sKMy_HgkiJ-6" value="" style="sketch=0;pointerEvents=1;shadow=0;dashed=0;html=1;labelPosition=center;verticalLabelPosition=bottom;verticalAlign=top;outlineConnect=0;align=center;shape=mxgraph.office.users.user;" parent="1" vertex="1">
          <mxGeometry x="380" y="80" width="40" height="40" as="geometry" />
        </mxCell>
        <mxCell id="6XTdwXwsE8sKMy_HgkiJ-7" value="" style="sketch=0;pointerEvents=1;shadow=0;dashed=0;html=1;labelPosition=center;verticalLabelPosition=bottom;verticalAlign=top;outlineConnect=0;align=center;shape=mxgraph.office.users.user;" parent="1" vertex="1">
          <mxGeometry x="380" y="160" width="40" height="40" as="geometry" />
        </mxCell>
        <mxCell id="6XTdwXwsE8sKMy_HgkiJ-9" value="" style="sketch=0;pointerEvents=1;shadow=0;dashed=0;html=1;labelPosition=center;verticalLabelPosition=bottom;verticalAlign=top;outlineConnect=0;align=center;shape=mxgraph.office.users.user;" parent="1" vertex="1">
          <mxGeometry x="200" y="160" width="40" height="40" as="geometry" />
        </mxCell>
        <mxCell id="6XTdwXwsE8sKMy_HgkiJ-10" value="" style="sketch=0;pointerEvents=1;shadow=0;dashed=0;html=1;labelPosition=center;verticalLabelPosition=bottom;verticalAlign=top;outlineConnect=0;align=center;shape=mxgraph.office.users.user;" parent="1" vertex="1">
          <mxGeometry x="200" y="80" width="40" height="40" as="geometry" />
        </mxCell>
        <mxCell id="6XTdwXwsE8sKMy_HgkiJ-11" value="" style="sketch=0;pointerEvents=1;shadow=0;dashed=0;html=1;labelPosition=center;verticalLabelPosition=bottom;verticalAlign=top;outlineConnect=0;align=center;shape=mxgraph.office.users.user;" parent="1" vertex="1">
          <mxGeometry x="120" y="160" width="40" height="40" as="geometry" />
        </mxCell>
        <mxCell id="6XTdwXwsE8sKMy_HgkiJ-12" value="" style="sketch=0;pointerEvents=1;shadow=0;dashed=0;html=1;labelPosition=center;verticalLabelPosition=bottom;verticalAlign=top;outlineConnect=0;align=center;shape=mxgraph.office.users.user;" parent="1" vertex="1">
          <mxGeometry x="120" y="80" width="40" height="40" as="geometry" />
        </mxCell>
        <mxCell id="6XTdwXwsE8sKMy_HgkiJ-13" value="BID" style="rounded=1;whiteSpace=wrap;html=1;fontSize=10;" parent="1" vertex="1">
          <mxGeometry x="800" y="190" width="80" height="20" as="geometry" />
        </mxCell>
        <mxCell id="6XTdwXwsE8sKMy_HgkiJ-15" value="TOS" style="rounded=1;whiteSpace=wrap;html=1;fontSize=10;" parent="1" vertex="1">
          <mxGeometry x="800" y="270" width="80" height="20" as="geometry" />
        </mxCell>
        <mxCell id="6XTdwXwsE8sKMy_HgkiJ-19" value="" style="sketch=0;pointerEvents=1;shadow=0;dashed=0;html=1;labelPosition=center;verticalLabelPosition=bottom;verticalAlign=top;outlineConnect=0;align=center;shape=mxgraph.office.users.users;" parent="1" vertex="1">
          <mxGeometry x="290" y="316" width="50" height="40" as="geometry" />
        </mxCell>
        <mxCell id="6XTdwXwsE8sKMy_HgkiJ-20" value="" style="rounded=1;whiteSpace=wrap;html=1;fillStyle=auto;opacity=20;fillColor=#1ba1e2;strokeColor=#006EAF;fontColor=#ffffff;" parent="1" vertex="1">
          <mxGeometry x="685" y="30" width="70" height="410" as="geometry" />
        </mxCell>
        <mxCell id="6XTdwXwsE8sKMy_HgkiJ-21" value="QA" style="rounded=1;whiteSpace=wrap;html=1;fillColor=#FFFFFF;fontSize=9;" parent="1" vertex="1">
          <mxGeometry x="690" y="410" width="60" height="20" as="geometry" />
        </mxCell>
      </root>
    </mxGraphModel>
  </diagram>
  <diagram name="Cópia do Página-1" id="lyCwMMUarYOyz2kQL-Ol">
    <mxGraphModel dx="2411" dy="2003" grid="1" gridSize="10" guides="1" tooltips="1" connect="1" arrows="1" fold="1" page="1" pageScale="1" pageWidth="827" pageHeight="1169" math="0" shadow="0">
      <root>
        <mxCell id="0K3pB7vRzEtjPuFGmUZY-0" />
        <mxCell id="0K3pB7vRzEtjPuFGmUZY-1" parent="0K3pB7vRzEtjPuFGmUZY-0" />
        <mxCell id="EJQyZETeWjXXF6MOZ_eN-113" value="Desenv." style="rounded=1;whiteSpace=wrap;html=1;fillColor=default;verticalAlign=top;dashed=1;fillStyle=auto;glass=0;perimeterSpacing=2;strokeWidth=3;fontSize=19;arcSize=3;" vertex="1" parent="0K3pB7vRzEtjPuFGmUZY-1">
          <mxGeometry x="270" y="-280" width="600" height="1010" as="geometry" />
        </mxCell>
        <mxCell id="0K3pB7vRzEtjPuFGmUZY-34" value="Produto" style="rounded=1;whiteSpace=wrap;html=1;fillColor=default;verticalAlign=top;dashed=1;fillStyle=auto;glass=0;perimeterSpacing=2;strokeWidth=3;fontSize=19;arcSize=4;" vertex="1" parent="0K3pB7vRzEtjPuFGmUZY-1">
          <mxGeometry x="70" y="-280" width="180" height="1010" as="geometry" />
        </mxCell>
        <mxCell id="0K3pB7vRzEtjPuFGmUZY-2" value="" style="rounded=1;whiteSpace=wrap;html=1;fillColor=#e51400;strokeColor=#B20000;opacity=60;fontColor=#ffffff;" vertex="1" parent="0K3pB7vRzEtjPuFGmUZY-1">
          <mxGeometry x="86" y="-250" width="70" height="970" as="geometry" />
        </mxCell>
        <mxCell id="0K3pB7vRzEtjPuFGmUZY-3" value="" style="rounded=1;whiteSpace=wrap;html=1;fillColor=#ffcd28;strokeColor=#d79b00;opacity=60;gradientColor=#ffa500;" vertex="1" parent="0K3pB7vRzEtjPuFGmUZY-1">
          <mxGeometry x="170" y="-250" width="70" height="970" as="geometry" />
        </mxCell>
        <mxCell id="0K3pB7vRzEtjPuFGmUZY-5" value="" style="rounded=1;whiteSpace=wrap;html=1;fillColor=#f5f5f5;strokeColor=#666666;opacity=80;gradientColor=#b3b3b3;" vertex="1" parent="0K3pB7vRzEtjPuFGmUZY-1">
          <mxGeometry x="280" y="-250" width="70" height="970" as="geometry" />
        </mxCell>
        <mxCell id="0K3pB7vRzEtjPuFGmUZY-6" value="" style="rounded=1;whiteSpace=wrap;html=1;fillColor=#e3c800;fontColor=#000000;strokeColor=#B09500;opacity=30;" vertex="1" parent="0K3pB7vRzEtjPuFGmUZY-1">
          <mxGeometry x="362" y="-250" width="70" height="970" as="geometry" />
        </mxCell>
        <mxCell id="0K3pB7vRzEtjPuFGmUZY-7" value="" style="rounded=1;whiteSpace=wrap;html=1;fillStyle=auto;opacity=20;fillColor=#d80073;strokeColor=#A50040;fontColor=#ffffff;" vertex="1" parent="0K3pB7vRzEtjPuFGmUZY-1">
          <mxGeometry x="660.47" y="-250" width="109.53" height="970" as="geometry" />
        </mxCell>
        <mxCell id="0K3pB7vRzEtjPuFGmUZY-8" value="" style="rounded=1;whiteSpace=wrap;html=1;fillStyle=auto;opacity=50;fillColor=#dae8fc;strokeColor=#6c8ebf;" vertex="1" parent="0K3pB7vRzEtjPuFGmUZY-1">
          <mxGeometry x="-30" y="561.25" width="910" height="138.75" as="geometry" />
        </mxCell>
        <mxCell id="0K3pB7vRzEtjPuFGmUZY-9" value="" style="rounded=1;whiteSpace=wrap;html=1;fillStyle=auto;opacity=50;fillColor=#f8cecc;strokeColor=#b85450;" vertex="1" parent="0K3pB7vRzEtjPuFGmUZY-1">
          <mxGeometry x="-30" width="910" height="150" as="geometry" />
        </mxCell>
        <mxCell id="0K3pB7vRzEtjPuFGmUZY-10" value="" style="rounded=1;whiteSpace=wrap;html=1;fillStyle=auto;opacity=50;fillColor=#d5e8d4;strokeColor=#82b366;" vertex="1" parent="0K3pB7vRzEtjPuFGmUZY-1">
          <mxGeometry x="-30" y="150" width="910" height="410" as="geometry" />
        </mxCell>
        <mxCell id="0K3pB7vRzEtjPuFGmUZY-14" value="Darossi" style="sketch=0;pointerEvents=1;shadow=0;dashed=0;html=1;strokeColor=default;labelPosition=center;verticalLabelPosition=bottom;verticalAlign=top;outlineConnect=0;align=center;shape=mxgraph.office.users.user;fillColor=#FF6666;" vertex="1" parent="0K3pB7vRzEtjPuFGmUZY-1">
          <mxGeometry x="462.5" y="50" width="40" height="40" as="geometry" />
        </mxCell>
        <mxCell id="0K3pB7vRzEtjPuFGmUZY-15" value="Gabriel" style="sketch=0;pointerEvents=1;shadow=0;dashed=0;html=1;strokeColor=default;labelPosition=center;verticalLabelPosition=bottom;verticalAlign=top;outlineConnect=0;align=center;shape=mxgraph.office.users.user;fillColor=#97D077;" vertex="1" parent="0K3pB7vRzEtjPuFGmUZY-1">
          <mxGeometry x="461" y="160" width="43" height="40" as="geometry" />
        </mxCell>
        <mxCell id="0K3pB7vRzEtjPuFGmUZY-16" value="&lt;font color=&quot;#000000&quot;&gt;Leonardo&lt;/font&gt;" style="sketch=0;pointerEvents=1;shadow=0;dashed=0;html=1;strokeColor=#001DBC;labelPosition=center;verticalLabelPosition=bottom;verticalAlign=top;outlineConnect=0;align=center;shape=mxgraph.office.users.user;fillColor=#0050ef;fontColor=#FFFFFF;" vertex="1" parent="0K3pB7vRzEtjPuFGmUZY-1">
          <mxGeometry x="454" y="588.8" width="40" height="40" as="geometry" />
        </mxCell>
        <mxCell id="0K3pB7vRzEtjPuFGmUZY-17" value="&lt;font color=&quot;#000000&quot;&gt;Guilherme&lt;/font&gt;" style="sketch=0;pointerEvents=1;shadow=0;dashed=0;html=1;strokeColor=default;fillColor=#d80073;labelPosition=center;verticalLabelPosition=bottom;verticalAlign=top;outlineConnect=0;align=center;shape=mxgraph.office.users.administrator;fontColor=#ffffff;" vertex="1" parent="0K3pB7vRzEtjPuFGmUZY-1">
          <mxGeometry x="695.24" y="-208" width="50" height="46" as="geometry" />
        </mxCell>
        <mxCell id="0K3pB7vRzEtjPuFGmUZY-20" value="Análise" style="rounded=1;whiteSpace=wrap;html=1;fontSize=10;" vertex="1" parent="0K3pB7vRzEtjPuFGmUZY-1">
          <mxGeometry x="374" y="-237" width="40" height="20" as="geometry" />
        </mxCell>
        <mxCell id="0K3pB7vRzEtjPuFGmUZY-21" value="Arquitetura" style="rounded=1;whiteSpace=wrap;html=1;fontSize=9;" vertex="1" parent="0K3pB7vRzEtjPuFGmUZY-1">
          <mxGeometry x="285" y="-237" width="60" height="20" as="geometry" />
        </mxCell>
        <mxCell id="0K3pB7vRzEtjPuFGmUZY-23" value="B3" style="rounded=1;whiteSpace=wrap;html=1;fontSize=10;" vertex="1" parent="0K3pB7vRzEtjPuFGmUZY-1">
          <mxGeometry x="-130" y="19.38" width="80" height="20" as="geometry" />
        </mxCell>
        <mxCell id="0K3pB7vRzEtjPuFGmUZY-24" value="YMS" style="rounded=1;whiteSpace=wrap;html=1;fontSize=10;" vertex="1" parent="0K3pB7vRzEtjPuFGmUZY-1">
          <mxGeometry x="-130" y="39.38" width="80" height="20" as="geometry" />
        </mxCell>
        <mxCell id="0K3pB7vRzEtjPuFGmUZY-25" value="TSM" style="rounded=1;whiteSpace=wrap;html=1;fontSize=10;" vertex="1" parent="0K3pB7vRzEtjPuFGmUZY-1">
          <mxGeometry x="-130" y="209.38" width="80" height="20" as="geometry" />
        </mxCell>
        <mxCell id="0K3pB7vRzEtjPuFGmUZY-26" value="GPED" style="rounded=1;whiteSpace=wrap;html=1;fontSize=10;" vertex="1" parent="0K3pB7vRzEtjPuFGmUZY-1">
          <mxGeometry x="-130" y="229.38" width="80" height="20" as="geometry" />
        </mxCell>
        <mxCell id="0K3pB7vRzEtjPuFGmUZY-27" value="Rota Certa" style="rounded=1;whiteSpace=wrap;html=1;fontSize=10;" vertex="1" parent="0K3pB7vRzEtjPuFGmUZY-1">
          <mxGeometry x="-130" y="59.38" width="80" height="20" as="geometry" />
        </mxCell>
        <mxCell id="0K3pB7vRzEtjPuFGmUZY-28" value="Totem" style="rounded=1;whiteSpace=wrap;html=1;fontSize=10;" vertex="1" parent="0K3pB7vRzEtjPuFGmUZY-1">
          <mxGeometry x="-130" y="560.63" width="80" height="20" as="geometry" />
        </mxCell>
        <mxCell id="0K3pB7vRzEtjPuFGmUZY-29" value="Painel Chamadas" style="rounded=1;whiteSpace=wrap;html=1;fontSize=9;" vertex="1" parent="0K3pB7vRzEtjPuFGmUZY-1">
          <mxGeometry x="-130" y="580.63" width="80" height="20" as="geometry" />
        </mxCell>
        <mxCell id="0K3pB7vRzEtjPuFGmUZY-30" value="1" style="rounded=1;whiteSpace=wrap;html=1;fillColor=#FFFFFF;" vertex="1" parent="0K3pB7vRzEtjPuFGmUZY-1">
          <mxGeometry x="-10" y="55" width="60" height="40" as="geometry" />
        </mxCell>
        <mxCell id="0K3pB7vRzEtjPuFGmUZY-31" value="3" style="rounded=1;whiteSpace=wrap;html=1;fillColor=#FFFFFF;" vertex="1" parent="0K3pB7vRzEtjPuFGmUZY-1">
          <mxGeometry x="-10" y="610.63" width="60" height="40" as="geometry" />
        </mxCell>
        <mxCell id="0K3pB7vRzEtjPuFGmUZY-32" value="Sustentação" style="rounded=1;whiteSpace=wrap;html=1;fillColor=#FFFFFF;fontSize=9;" vertex="1" parent="0K3pB7vRzEtjPuFGmUZY-1">
          <mxGeometry x="685.24" y="-237" width="60" height="20" as="geometry" />
        </mxCell>
        <mxCell id="0K3pB7vRzEtjPuFGmUZY-33" value="2" style="rounded=1;whiteSpace=wrap;html=1;fillColor=#FFFFFF;" vertex="1" parent="0K3pB7vRzEtjPuFGmUZY-1">
          <mxGeometry x="-10" y="350" width="60" height="40" as="geometry" />
        </mxCell>
        <mxCell id="0K3pB7vRzEtjPuFGmUZY-35" value="PM" style="rounded=1;whiteSpace=wrap;html=1;fontSize=9;" vertex="1" parent="0K3pB7vRzEtjPuFGmUZY-1">
          <mxGeometry x="101" y="-237" width="40" height="20" as="geometry" />
        </mxCell>
        <mxCell id="0K3pB7vRzEtjPuFGmUZY-36" value="PD" style="rounded=1;whiteSpace=wrap;html=1;fontSize=9;" vertex="1" parent="0K3pB7vRzEtjPuFGmUZY-1">
          <mxGeometry x="185" y="-237" width="40" height="20" as="geometry" />
        </mxCell>
        <mxCell id="0K3pB7vRzEtjPuFGmUZY-37" value="Luis Felipe" style="sketch=0;pointerEvents=1;shadow=0;dashed=0;html=1;labelPosition=center;verticalLabelPosition=bottom;verticalAlign=top;outlineConnect=0;align=center;shape=mxgraph.office.users.user;fillColor=#FFFF00;" vertex="1" parent="0K3pB7vRzEtjPuFGmUZY-1">
          <mxGeometry x="374" y="-140" width="40" height="40" as="geometry" />
        </mxCell>
        <mxCell id="0K3pB7vRzEtjPuFGmUZY-38" value="Mathias" style="sketch=0;pointerEvents=1;shadow=0;dashed=0;html=1;labelPosition=center;verticalLabelPosition=bottom;verticalAlign=top;outlineConnect=0;align=center;shape=mxgraph.office.users.user;fillColor=#FFFF00;" vertex="1" parent="0K3pB7vRzEtjPuFGmUZY-1">
          <mxGeometry x="374" y="-202" width="40" height="40" as="geometry" />
        </mxCell>
        <mxCell id="0K3pB7vRzEtjPuFGmUZY-39" value="André" style="sketch=0;pointerEvents=1;shadow=0;dashed=0;html=1;labelPosition=center;verticalLabelPosition=bottom;verticalAlign=top;outlineConnect=0;align=center;shape=mxgraph.office.users.user;fillColor=#f0a30a;fontColor=#000000;strokeColor=#000000;" vertex="1" parent="0K3pB7vRzEtjPuFGmUZY-1">
          <mxGeometry x="182" y="-210" width="40" height="40" as="geometry" />
        </mxCell>
        <mxCell id="0K3pB7vRzEtjPuFGmUZY-41" value="Alessandro" style="sketch=0;pointerEvents=1;shadow=0;dashed=0;html=1;labelPosition=center;verticalLabelPosition=bottom;verticalAlign=top;outlineConnect=0;align=center;shape=mxgraph.office.users.user;fillColor=#a20025;fontColor=#000000;strokeColor=#000000;" vertex="1" parent="0K3pB7vRzEtjPuFGmUZY-1">
          <mxGeometry x="101" y="-140" width="40" height="40" as="geometry" />
        </mxCell>
        <mxCell id="0K3pB7vRzEtjPuFGmUZY-42" value="Tonetti" style="sketch=0;pointerEvents=1;shadow=0;dashed=0;html=1;labelPosition=center;verticalLabelPosition=bottom;verticalAlign=top;outlineConnect=0;align=center;shape=mxgraph.office.users.user;fillColor=#a20025;fontColor=#000000;strokeColor=#000000;" vertex="1" parent="0K3pB7vRzEtjPuFGmUZY-1">
          <mxGeometry x="101" y="-210" width="40" height="40" as="geometry" />
        </mxCell>
        <mxCell id="0K3pB7vRzEtjPuFGmUZY-43" value="BID" style="rounded=1;whiteSpace=wrap;html=1;fontSize=10;" vertex="1" parent="0K3pB7vRzEtjPuFGmUZY-1">
          <mxGeometry x="-130" y="249.38" width="80" height="20" as="geometry" />
        </mxCell>
        <mxCell id="0K3pB7vRzEtjPuFGmUZY-44" value="TOS" style="rounded=1;whiteSpace=wrap;html=1;fontSize=10;" vertex="1" parent="0K3pB7vRzEtjPuFGmUZY-1">
          <mxGeometry x="-130" y="600.63" width="80" height="20" as="geometry" />
        </mxCell>
        <mxCell id="0K3pB7vRzEtjPuFGmUZY-46" value="" style="rounded=1;whiteSpace=wrap;html=1;fillStyle=auto;opacity=20;fillColor=#1ba1e2;strokeColor=#006EAF;fontColor=#ffffff;" vertex="1" parent="0K3pB7vRzEtjPuFGmUZY-1">
          <mxGeometry x="790" y="-250" width="70" height="970" as="geometry" />
        </mxCell>
        <mxCell id="0K3pB7vRzEtjPuFGmUZY-47" value="QA" style="rounded=1;whiteSpace=wrap;html=1;fillColor=#FFFFFF;fontSize=9;" vertex="1" parent="0K3pB7vRzEtjPuFGmUZY-1">
          <mxGeometry x="798" y="-237" width="50" height="20" as="geometry" />
        </mxCell>
        <mxCell id="EJQyZETeWjXXF6MOZ_eN-0" value="André" style="sketch=0;pointerEvents=1;shadow=0;dashed=0;html=1;labelPosition=center;verticalLabelPosition=bottom;verticalAlign=top;outlineConnect=0;align=center;shape=mxgraph.office.users.user;fillColor=#969696;" vertex="1" parent="0K3pB7vRzEtjPuFGmUZY-1">
          <mxGeometry x="295" y="-210" width="40" height="40" as="geometry" />
        </mxCell>
        <mxCell id="EJQyZETeWjXXF6MOZ_eN-1" value="Luizão" style="sketch=0;pointerEvents=1;shadow=0;dashed=0;html=1;labelPosition=center;verticalLabelPosition=bottom;verticalAlign=top;outlineConnect=0;align=center;shape=mxgraph.office.users.user;fillColor=#969696;" vertex="1" parent="0K3pB7vRzEtjPuFGmUZY-1">
          <mxGeometry x="295" y="-140" width="40" height="40" as="geometry" />
        </mxCell>
        <mxCell id="EJQyZETeWjXXF6MOZ_eN-2" value="Daniel" style="sketch=0;pointerEvents=1;shadow=0;dashed=0;html=1;labelPosition=center;verticalLabelPosition=bottom;verticalAlign=top;outlineConnect=0;align=center;shape=mxgraph.office.users.user;fillColor=#969696;" vertex="1" parent="0K3pB7vRzEtjPuFGmUZY-1">
          <mxGeometry x="295" y="-70" width="40" height="40" as="geometry" />
        </mxCell>
        <mxCell id="EJQyZETeWjXXF6MOZ_eN-12" value="&amp;nbsp;Felipe&lt;br&gt;&lt;span style=&quot;background-color: initial;&quot;&gt;&amp;nbsp;Derick&lt;/span&gt;" style="rounded=1;whiteSpace=wrap;html=1;fillColor=#FFFFFF;align=left;" vertex="1" parent="0K3pB7vRzEtjPuFGmUZY-1">
          <mxGeometry x="1070" y="760" width="54.06" height="52" as="geometry" />
        </mxCell>
        <mxCell id="EJQyZETeWjXXF6MOZ_eN-14" value="Aldir" style="sketch=0;pointerEvents=1;shadow=0;dashed=0;html=1;labelPosition=center;verticalLabelPosition=bottom;verticalAlign=top;outlineConnect=0;align=center;shape=mxgraph.office.users.user;fillColor=#FFFF00;" vertex="1" parent="0K3pB7vRzEtjPuFGmUZY-1">
          <mxGeometry x="374" y="-70" width="40" height="40" as="geometry" />
        </mxCell>
        <mxCell id="EJQyZETeWjXXF6MOZ_eN-15" value="Menon" style="sketch=0;pointerEvents=1;shadow=0;dashed=0;html=1;labelPosition=center;verticalLabelPosition=bottom;verticalAlign=top;outlineConnect=0;align=center;shape=mxgraph.office.users.user;fillColor=#a20025;fontColor=#000000;strokeColor=#000000;" vertex="1" parent="0K3pB7vRzEtjPuFGmUZY-1">
          <mxGeometry x="101" y="-65" width="40" height="40" as="geometry" />
        </mxCell>
        <mxCell id="EJQyZETeWjXXF6MOZ_eN-28" value="Hermínio" style="sketch=0;pointerEvents=1;shadow=0;dashed=0;html=1;strokeColor=default;labelPosition=center;verticalLabelPosition=bottom;verticalAlign=top;outlineConnect=0;align=center;shape=mxgraph.office.users.user;fillColor=#97D077;" vertex="1" parent="0K3pB7vRzEtjPuFGmUZY-1">
          <mxGeometry x="469.5" y="234" width="29" height="30" as="geometry" />
        </mxCell>
        <mxCell id="EJQyZETeWjXXF6MOZ_eN-30" value="Henrique" style="sketch=0;pointerEvents=1;shadow=0;dashed=0;html=1;strokeColor=default;labelPosition=center;verticalLabelPosition=bottom;verticalAlign=top;outlineConnect=0;align=center;shape=mxgraph.office.users.user;fillColor=#97D077;" vertex="1" parent="0K3pB7vRzEtjPuFGmUZY-1">
          <mxGeometry x="468" y="320" width="29" height="30" as="geometry" />
        </mxCell>
        <mxCell id="EJQyZETeWjXXF6MOZ_eN-33" value="&lt;font color=&quot;#000000&quot;&gt;Rafael&lt;/font&gt;" style="sketch=0;pointerEvents=1;shadow=0;dashed=0;html=1;labelPosition=center;verticalLabelPosition=bottom;verticalAlign=top;outlineConnect=0;align=center;shape=mxgraph.office.users.user;fillColor=#66B2FF;fontColor=#ffffff;strokeColor=#000000;" vertex="1" parent="0K3pB7vRzEtjPuFGmUZY-1">
          <mxGeometry x="803" y="-210" width="40" height="40" as="geometry" />
        </mxCell>
        <mxCell id="EJQyZETeWjXXF6MOZ_eN-34" value="&lt;font color=&quot;#000000&quot;&gt;Lúcia&lt;/font&gt;" style="sketch=0;pointerEvents=1;shadow=0;dashed=0;html=1;labelPosition=center;verticalLabelPosition=bottom;verticalAlign=top;outlineConnect=0;align=center;shape=mxgraph.office.users.user;fillColor=#66B2FF;fontColor=#ffffff;strokeColor=#000000;" vertex="1" parent="0K3pB7vRzEtjPuFGmUZY-1">
          <mxGeometry x="803" y="-140" width="40" height="40" as="geometry" />
        </mxCell>
        <mxCell id="EJQyZETeWjXXF6MOZ_eN-37" value="&lt;font color=&quot;#000000&quot;&gt;João&lt;/font&gt;" style="sketch=0;pointerEvents=1;shadow=0;dashed=0;html=1;labelPosition=center;verticalLabelPosition=bottom;verticalAlign=top;outlineConnect=0;align=center;shape=mxgraph.office.users.user;fillColor=#66B2FF;fontColor=#ffffff;strokeColor=#000000;" vertex="1" parent="0K3pB7vRzEtjPuFGmUZY-1">
          <mxGeometry x="805" y="-70" width="40" height="40" as="geometry" />
        </mxCell>
        <mxCell id="EJQyZETeWjXXF6MOZ_eN-43" value="[SAAGRA] Ailem" style="rounded=1;whiteSpace=wrap;html=1;fontSize=11;align=left;" vertex="1" parent="0K3pB7vRzEtjPuFGmUZY-1">
          <mxGeometry x="528" y="660" width="90" height="20" as="geometry" />
        </mxCell>
        <mxCell id="EJQyZETeWjXXF6MOZ_eN-44" value="[B3] Fábio" style="rounded=1;whiteSpace=wrap;html=1;fontSize=11;align=left;" vertex="1" parent="0K3pB7vRzEtjPuFGmUZY-1">
          <mxGeometry x="530" y="30" width="90" height="20" as="geometry" />
        </mxCell>
        <mxCell id="EJQyZETeWjXXF6MOZ_eN-45" value="[YMS] Eberson" style="rounded=1;whiteSpace=wrap;html=1;fontSize=11;align=left;" vertex="1" parent="0K3pB7vRzEtjPuFGmUZY-1">
          <mxGeometry x="530" y="50" width="90" height="20" as="geometry" />
        </mxCell>
        <mxCell id="EJQyZETeWjXXF6MOZ_eN-46" value="[Rota] Gabriel" style="rounded=1;whiteSpace=wrap;html=1;fontSize=11;align=left;" vertex="1" parent="0K3pB7vRzEtjPuFGmUZY-1">
          <mxGeometry x="530" y="70" width="90" height="20" as="geometry" />
        </mxCell>
        <mxCell id="EJQyZETeWjXXF6MOZ_eN-47" value="Marcelo" style="rounded=1;whiteSpace=wrap;html=1;fontSize=11;align=left;" vertex="1" parent="0K3pB7vRzEtjPuFGmUZY-1">
          <mxGeometry x="530" y="90" width="90" height="20" as="geometry" />
        </mxCell>
        <mxCell id="EJQyZETeWjXXF6MOZ_eN-48" value="Moises" style="rounded=1;whiteSpace=wrap;html=1;fontSize=11;align=left;" vertex="1" parent="0K3pB7vRzEtjPuFGmUZY-1">
          <mxGeometry x="530" y="110" width="90" height="20" as="geometry" />
        </mxCell>
        <mxCell id="EJQyZETeWjXXF6MOZ_eN-76" value="[RUMO] Matheus" style="rounded=1;whiteSpace=wrap;html=1;fontSize=11;align=left;" vertex="1" parent="0K3pB7vRzEtjPuFGmUZY-1">
          <mxGeometry x="528" y="232" width="90" height="20" as="geometry" />
        </mxCell>
        <mxCell id="EJQyZETeWjXXF6MOZ_eN-77" value="[RUMO] Igor" style="rounded=1;whiteSpace=wrap;html=1;fontSize=11;align=left;" vertex="1" parent="0K3pB7vRzEtjPuFGmUZY-1">
          <mxGeometry x="528" y="252" width="90" height="20" as="geometry" />
        </mxCell>
        <mxCell id="EJQyZETeWjXXF6MOZ_eN-78" value="[RUMO] Marcos" style="rounded=1;whiteSpace=wrap;html=1;fontSize=11;align=left;" vertex="1" parent="0K3pB7vRzEtjPuFGmUZY-1">
          <mxGeometry x="528" y="272" width="90" height="20" as="geometry" />
        </mxCell>
        <mxCell id="EJQyZETeWjXXF6MOZ_eN-79" value="[Mosaic] Murilo" style="rounded=1;whiteSpace=wrap;html=1;fontSize=11;align=left;" vertex="1" parent="0K3pB7vRzEtjPuFGmUZY-1">
          <mxGeometry x="528" y="429" width="90" height="20" as="geometry" />
        </mxCell>
        <mxCell id="EJQyZETeWjXXF6MOZ_eN-80" value="[Mosaic] Serafim" style="rounded=1;whiteSpace=wrap;html=1;fontSize=11;align=left;" vertex="1" parent="0K3pB7vRzEtjPuFGmUZY-1">
          <mxGeometry x="528" y="449" width="90" height="20" as="geometry" />
        </mxCell>
        <mxCell id="EJQyZETeWjXXF6MOZ_eN-82" value="[BID] Bielski" style="rounded=1;whiteSpace=wrap;html=1;fontSize=11;align=left;" vertex="1" parent="0K3pB7vRzEtjPuFGmUZY-1">
          <mxGeometry x="528" y="481" width="90" height="20" as="geometry" />
        </mxCell>
        <mxCell id="EJQyZETeWjXXF6MOZ_eN-83" value="[BID] Everton" style="rounded=1;whiteSpace=wrap;html=1;fontSize=11;align=left;" vertex="1" parent="0K3pB7vRzEtjPuFGmUZY-1">
          <mxGeometry x="528" y="501" width="90" height="20" as="geometry" />
        </mxCell>
        <mxCell id="EJQyZETeWjXXF6MOZ_eN-84" value="[TSM] Schram" style="rounded=1;whiteSpace=wrap;html=1;fontSize=11;align=left;" vertex="1" parent="0K3pB7vRzEtjPuFGmUZY-1">
          <mxGeometry x="528" y="310" width="90" height="20" as="geometry" />
        </mxCell>
        <mxCell id="EJQyZETeWjXXF6MOZ_eN-86" value="[TSM] Anderson" style="rounded=1;whiteSpace=wrap;html=1;fontSize=11;align=left;" vertex="1" parent="0K3pB7vRzEtjPuFGmUZY-1">
          <mxGeometry x="528" y="330" width="90" height="20" as="geometry" />
        </mxCell>
        <mxCell id="EJQyZETeWjXXF6MOZ_eN-87" value="[TSM] André B." style="rounded=1;whiteSpace=wrap;html=1;fontSize=11;align=left;" vertex="1" parent="0K3pB7vRzEtjPuFGmUZY-1">
          <mxGeometry x="528" y="350" width="90" height="20" as="geometry" />
        </mxCell>
        <mxCell id="EJQyZETeWjXXF6MOZ_eN-88" value="[TSM] Mateus A." style="rounded=1;whiteSpace=wrap;html=1;fontSize=11;align=left;" vertex="1" parent="0K3pB7vRzEtjPuFGmUZY-1">
          <mxGeometry x="528" y="370" width="90" height="20" as="geometry" />
        </mxCell>
        <mxCell id="EJQyZETeWjXXF6MOZ_eN-89" value="[TSM] Nicolas" style="rounded=1;whiteSpace=wrap;html=1;fontSize=11;align=left;" vertex="1" parent="0K3pB7vRzEtjPuFGmUZY-1">
          <mxGeometry x="528" y="390" width="90" height="20" as="geometry" />
        </mxCell>
        <mxCell id="EJQyZETeWjXXF6MOZ_eN-90" value="[SAAGRA]Felipe" style="rounded=1;whiteSpace=wrap;html=1;fontSize=11;align=left;" vertex="1" parent="0K3pB7vRzEtjPuFGmUZY-1">
          <mxGeometry x="669.21" y="598.8" width="92.06" height="20" as="geometry" />
        </mxCell>
        <mxCell id="EJQyZETeWjXXF6MOZ_eN-91" value="[GTM] Derick" style="rounded=1;whiteSpace=wrap;html=1;fontSize=11;align=left;" vertex="1" parent="0K3pB7vRzEtjPuFGmUZY-1">
          <mxGeometry x="669.21" y="620.63" width="92.06" height="20" as="geometry" />
        </mxCell>
        <mxCell id="EJQyZETeWjXXF6MOZ_eN-103" value="[TSM] Edgar" style="rounded=1;whiteSpace=wrap;html=1;fontSize=11;align=left;" vertex="1" parent="0K3pB7vRzEtjPuFGmUZY-1">
          <mxGeometry x="669.21" y="330" width="92.06" height="20" as="geometry" />
        </mxCell>
        <mxCell id="EJQyZETeWjXXF6MOZ_eN-104" value="[Mosaic] Dalssoto" style="rounded=1;whiteSpace=wrap;html=1;fontSize=11;align=left;" vertex="1" parent="0K3pB7vRzEtjPuFGmUZY-1">
          <mxGeometry x="670.2700000000001" y="356" width="90" height="20" as="geometry" />
        </mxCell>
        <mxCell id="EJQyZETeWjXXF6MOZ_eN-107" value="[GTM] Luiz" style="rounded=1;whiteSpace=wrap;html=1;fontSize=11;align=left;" vertex="1" parent="0K3pB7vRzEtjPuFGmUZY-1">
          <mxGeometry x="528" y="640" width="90" height="20" as="geometry" />
        </mxCell>
        <mxCell id="EJQyZETeWjXXF6MOZ_eN-108" value="[GTM] Luciando" style="rounded=1;whiteSpace=wrap;html=1;fontSize=11;align=left;" vertex="1" parent="0K3pB7vRzEtjPuFGmUZY-1">
          <mxGeometry x="528" y="620" width="90" height="20" as="geometry" />
        </mxCell>
        <mxCell id="EJQyZETeWjXXF6MOZ_eN-109" value="[TOS] Samuel" style="rounded=1;whiteSpace=wrap;html=1;fontSize=11;align=left;" vertex="1" parent="0K3pB7vRzEtjPuFGmUZY-1">
          <mxGeometry x="528" y="600" width="90" height="20" as="geometry" />
        </mxCell>
        <mxCell id="EJQyZETeWjXXF6MOZ_eN-110" value="[TOS] Eduardo" style="rounded=1;whiteSpace=wrap;html=1;fontSize=11;align=left;" vertex="1" parent="0K3pB7vRzEtjPuFGmUZY-1">
          <mxGeometry x="528" y="580" width="90" height="20" as="geometry" />
        </mxCell>
        <mxCell id="EJQyZETeWjXXF6MOZ_eN-111" value="GTM" style="rounded=1;whiteSpace=wrap;html=1;fontSize=10;" vertex="1" parent="0K3pB7vRzEtjPuFGmUZY-1">
          <mxGeometry x="-130" y="620.63" width="80" height="20" as="geometry" />
        </mxCell>
        <mxCell id="EJQyZETeWjXXF6MOZ_eN-112" value="SAAGRA" style="rounded=1;whiteSpace=wrap;html=1;fontSize=10;" vertex="1" parent="0K3pB7vRzEtjPuFGmUZY-1">
          <mxGeometry x="-130" y="640.63" width="80" height="20" as="geometry" />
        </mxCell>
      </root>
    </mxGraphModel>
  </diagram>
  <diagram name="curto_prazo" id="alcIvQ8DoMJnpqtmlaxz">
    <mxGraphModel dx="2253" dy="1920" grid="1" gridSize="10" guides="1" tooltips="1" connect="1" arrows="1" fold="1" page="1" pageScale="1" pageWidth="827" pageHeight="1169" math="0" shadow="0">
      <root>
        <mxCell id="Pon-2stS2eXL-ErVrg9i-0" />
        <mxCell id="Pon-2stS2eXL-ErVrg9i-1" parent="Pon-2stS2eXL-ErVrg9i-0" />
        <mxCell id="Pon-2stS2eXL-ErVrg9i-2" value="Desenv." style="rounded=1;whiteSpace=wrap;html=1;fillColor=default;verticalAlign=top;dashed=1;fillStyle=auto;glass=0;perimeterSpacing=2;strokeWidth=3;fontSize=19;arcSize=3;" parent="Pon-2stS2eXL-ErVrg9i-1" vertex="1">
          <mxGeometry x="270" y="-280" width="600" height="1010" as="geometry" />
        </mxCell>
        <mxCell id="Pon-2stS2eXL-ErVrg9i-3" value="Produto" style="rounded=1;whiteSpace=wrap;html=1;fillColor=default;verticalAlign=top;dashed=1;fillStyle=auto;glass=0;perimeterSpacing=2;strokeWidth=3;fontSize=19;arcSize=4;" parent="Pon-2stS2eXL-ErVrg9i-1" vertex="1">
          <mxGeometry x="70" y="-280" width="180" height="1010" as="geometry" />
        </mxCell>
        <mxCell id="Pon-2stS2eXL-ErVrg9i-4" value="" style="rounded=1;whiteSpace=wrap;html=1;fillColor=#e51400;strokeColor=#B20000;opacity=60;fontColor=#ffffff;" parent="Pon-2stS2eXL-ErVrg9i-1" vertex="1">
          <mxGeometry x="86" y="-250" width="70" height="970" as="geometry" />
        </mxCell>
        <mxCell id="Pon-2stS2eXL-ErVrg9i-5" value="" style="rounded=1;whiteSpace=wrap;html=1;fillColor=#ffcd28;strokeColor=#d79b00;opacity=60;gradientColor=#ffa500;" parent="Pon-2stS2eXL-ErVrg9i-1" vertex="1">
          <mxGeometry x="170" y="-250" width="70" height="970" as="geometry" />
        </mxCell>
        <mxCell id="Pon-2stS2eXL-ErVrg9i-6" value="" style="rounded=1;whiteSpace=wrap;html=1;fillColor=#f5f5f5;strokeColor=#666666;opacity=80;gradientColor=#b3b3b3;" parent="Pon-2stS2eXL-ErVrg9i-1" vertex="1">
          <mxGeometry x="280" y="-250" width="70" height="970" as="geometry" />
        </mxCell>
        <mxCell id="Pon-2stS2eXL-ErVrg9i-7" value="" style="rounded=1;whiteSpace=wrap;html=1;fillColor=#e3c800;fontColor=#000000;strokeColor=#B09500;opacity=30;" parent="Pon-2stS2eXL-ErVrg9i-1" vertex="1">
          <mxGeometry x="362" y="-250" width="70" height="970" as="geometry" />
        </mxCell>
        <mxCell id="Pon-2stS2eXL-ErVrg9i-8" value="" style="rounded=1;whiteSpace=wrap;html=1;fillStyle=auto;opacity=20;fillColor=#d80073;strokeColor=#A50040;fontColor=#ffffff;" parent="Pon-2stS2eXL-ErVrg9i-1" vertex="1">
          <mxGeometry x="660.47" y="-250" width="109.53" height="970" as="geometry" />
        </mxCell>
        <mxCell id="Pon-2stS2eXL-ErVrg9i-9" value="" style="rounded=1;whiteSpace=wrap;html=1;fillStyle=auto;opacity=50;fillColor=#dae8fc;strokeColor=#6c8ebf;" parent="Pon-2stS2eXL-ErVrg9i-1" vertex="1">
          <mxGeometry x="-30" y="560" width="910" height="140" as="geometry" />
        </mxCell>
        <mxCell id="Pon-2stS2eXL-ErVrg9i-10" value="" style="rounded=1;whiteSpace=wrap;html=1;fillStyle=auto;opacity=50;fillColor=#f8cecc;strokeColor=#b85450;" parent="Pon-2stS2eXL-ErVrg9i-1" vertex="1">
          <mxGeometry x="-30" width="910" height="150" as="geometry" />
        </mxCell>
        <mxCell id="Pon-2stS2eXL-ErVrg9i-11" value="" style="rounded=1;whiteSpace=wrap;html=1;fillStyle=auto;opacity=50;fillColor=#d5e8d4;strokeColor=#82b366;" parent="Pon-2stS2eXL-ErVrg9i-1" vertex="1">
          <mxGeometry x="-30" y="150" width="910" height="410" as="geometry" />
        </mxCell>
        <mxCell id="Pon-2stS2eXL-ErVrg9i-12" value="Darossi" style="sketch=0;pointerEvents=1;shadow=0;dashed=0;html=1;strokeColor=default;labelPosition=center;verticalLabelPosition=bottom;verticalAlign=top;outlineConnect=0;align=center;shape=mxgraph.office.users.user;fillColor=#FF6666;" parent="Pon-2stS2eXL-ErVrg9i-1" vertex="1">
          <mxGeometry x="462.5" y="50" width="40" height="40" as="geometry" />
        </mxCell>
        <mxCell id="Pon-2stS2eXL-ErVrg9i-13" value="Gabriel" style="sketch=0;pointerEvents=1;shadow=0;dashed=0;html=1;strokeColor=default;labelPosition=center;verticalLabelPosition=bottom;verticalAlign=top;outlineConnect=0;align=center;shape=mxgraph.office.users.user;fillColor=#97D077;" parent="Pon-2stS2eXL-ErVrg9i-1" vertex="1">
          <mxGeometry x="461" y="160" width="43" height="40" as="geometry" />
        </mxCell>
        <mxCell id="Pon-2stS2eXL-ErVrg9i-14" value="&lt;font color=&quot;#000000&quot;&gt;Leonardo&lt;/font&gt;" style="sketch=0;pointerEvents=1;shadow=0;dashed=0;html=1;strokeColor=#001DBC;labelPosition=center;verticalLabelPosition=bottom;verticalAlign=top;outlineConnect=0;align=center;shape=mxgraph.office.users.user;fillColor=#0050ef;fontColor=#FFFFFF;" parent="Pon-2stS2eXL-ErVrg9i-1" vertex="1">
          <mxGeometry x="454" y="588.8" width="40" height="40" as="geometry" />
        </mxCell>
        <mxCell id="Pon-2stS2eXL-ErVrg9i-15" value="&lt;font color=&quot;#000000&quot;&gt;Guilherme&lt;/font&gt;" style="sketch=0;pointerEvents=1;shadow=0;dashed=0;html=1;strokeColor=default;fillColor=#d80073;labelPosition=center;verticalLabelPosition=bottom;verticalAlign=top;outlineConnect=0;align=center;shape=mxgraph.office.users.administrator;fontColor=#ffffff;" parent="Pon-2stS2eXL-ErVrg9i-1" vertex="1">
          <mxGeometry x="695.24" y="-200" width="50" height="46" as="geometry" />
        </mxCell>
        <mxCell id="Pon-2stS2eXL-ErVrg9i-16" value="Análise" style="rounded=1;whiteSpace=wrap;html=1;fontSize=10;" parent="Pon-2stS2eXL-ErVrg9i-1" vertex="1">
          <mxGeometry x="374" y="-237" width="40" height="20" as="geometry" />
        </mxCell>
        <mxCell id="Pon-2stS2eXL-ErVrg9i-17" value="Arquitetura" style="rounded=1;whiteSpace=wrap;html=1;fontSize=9;" parent="Pon-2stS2eXL-ErVrg9i-1" vertex="1">
          <mxGeometry x="285" y="-237" width="60" height="20" as="geometry" />
        </mxCell>
        <mxCell id="Pon-2stS2eXL-ErVrg9i-18" value="B3" style="rounded=1;whiteSpace=wrap;html=1;fontSize=10;" parent="Pon-2stS2eXL-ErVrg9i-1" vertex="1">
          <mxGeometry x="-130" y="19.38" width="80" height="20" as="geometry" />
        </mxCell>
        <mxCell id="Pon-2stS2eXL-ErVrg9i-19" value="YMS" style="rounded=1;whiteSpace=wrap;html=1;fontSize=10;" parent="Pon-2stS2eXL-ErVrg9i-1" vertex="1">
          <mxGeometry x="-130" y="39.38" width="80" height="20" as="geometry" />
        </mxCell>
        <mxCell id="Pon-2stS2eXL-ErVrg9i-20" value="TSM" style="rounded=1;whiteSpace=wrap;html=1;fontSize=10;" parent="Pon-2stS2eXL-ErVrg9i-1" vertex="1">
          <mxGeometry x="-130" y="209.38" width="80" height="20" as="geometry" />
        </mxCell>
        <mxCell id="Pon-2stS2eXL-ErVrg9i-21" value="GPED" style="rounded=1;whiteSpace=wrap;html=1;fontSize=10;" parent="Pon-2stS2eXL-ErVrg9i-1" vertex="1">
          <mxGeometry x="-130" y="60" width="80" height="20" as="geometry" />
        </mxCell>
        <mxCell id="Pon-2stS2eXL-ErVrg9i-22" value="Rota Certa" style="rounded=1;whiteSpace=wrap;html=1;fontSize=10;" parent="Pon-2stS2eXL-ErVrg9i-1" vertex="1">
          <mxGeometry x="-130" y="230" width="80" height="20" as="geometry" />
        </mxCell>
        <mxCell id="Pon-2stS2eXL-ErVrg9i-23" value="Totem" style="rounded=1;whiteSpace=wrap;html=1;fontSize=10;" parent="Pon-2stS2eXL-ErVrg9i-1" vertex="1">
          <mxGeometry x="-130" y="560.63" width="80" height="20" as="geometry" />
        </mxCell>
        <mxCell id="Pon-2stS2eXL-ErVrg9i-24" value="Painel Chamadas" style="rounded=1;whiteSpace=wrap;html=1;fontSize=9;" parent="Pon-2stS2eXL-ErVrg9i-1" vertex="1">
          <mxGeometry x="-130" y="580.63" width="80" height="20" as="geometry" />
        </mxCell>
        <mxCell id="Pon-2stS2eXL-ErVrg9i-25" value="1" style="rounded=1;whiteSpace=wrap;html=1;fillColor=#FFFFFF;" parent="Pon-2stS2eXL-ErVrg9i-1" vertex="1">
          <mxGeometry x="-10" y="55" width="60" height="40" as="geometry" />
        </mxCell>
        <mxCell id="Pon-2stS2eXL-ErVrg9i-26" value="3" style="rounded=1;whiteSpace=wrap;html=1;fillColor=#FFFFFF;" parent="Pon-2stS2eXL-ErVrg9i-1" vertex="1">
          <mxGeometry x="-10" y="610.63" width="60" height="40" as="geometry" />
        </mxCell>
        <mxCell id="Pon-2stS2eXL-ErVrg9i-27" value="Sustentação" style="rounded=1;whiteSpace=wrap;html=1;fillColor=#FFFFFF;fontSize=9;" parent="Pon-2stS2eXL-ErVrg9i-1" vertex="1">
          <mxGeometry x="685.24" y="-237" width="60" height="20" as="geometry" />
        </mxCell>
        <mxCell id="Pon-2stS2eXL-ErVrg9i-28" value="2" style="rounded=1;whiteSpace=wrap;html=1;fillColor=#FFFFFF;" parent="Pon-2stS2eXL-ErVrg9i-1" vertex="1">
          <mxGeometry x="-10" y="350" width="60" height="40" as="geometry" />
        </mxCell>
        <mxCell id="Pon-2stS2eXL-ErVrg9i-29" value="PM" style="rounded=1;whiteSpace=wrap;html=1;fontSize=9;" parent="Pon-2stS2eXL-ErVrg9i-1" vertex="1">
          <mxGeometry x="101" y="-237" width="40" height="20" as="geometry" />
        </mxCell>
        <mxCell id="Pon-2stS2eXL-ErVrg9i-30" value="PD" style="rounded=1;whiteSpace=wrap;html=1;fontSize=9;" parent="Pon-2stS2eXL-ErVrg9i-1" vertex="1">
          <mxGeometry x="185" y="-237" width="40" height="20" as="geometry" />
        </mxCell>
        <mxCell id="Pon-2stS2eXL-ErVrg9i-31" value="Luis Felipe" style="sketch=0;pointerEvents=1;shadow=0;dashed=0;html=1;labelPosition=center;verticalLabelPosition=bottom;verticalAlign=top;outlineConnect=0;align=center;shape=mxgraph.office.users.user;fillColor=#FFFF00;" parent="Pon-2stS2eXL-ErVrg9i-1" vertex="1">
          <mxGeometry x="380" y="49.38" width="40" height="40" as="geometry" />
        </mxCell>
        <mxCell id="Pon-2stS2eXL-ErVrg9i-32" value="Mathias" style="sketch=0;pointerEvents=1;shadow=0;dashed=0;html=1;labelPosition=center;verticalLabelPosition=bottom;verticalAlign=top;outlineConnect=0;align=center;shape=mxgraph.office.users.user;fillColor=#FFFF00;" parent="Pon-2stS2eXL-ErVrg9i-1" vertex="1">
          <mxGeometry x="380" y="262" width="40" height="40" as="geometry" />
        </mxCell>
        <mxCell id="Pon-2stS2eXL-ErVrg9i-33" value="André" style="sketch=0;pointerEvents=1;shadow=0;dashed=0;html=1;labelPosition=center;verticalLabelPosition=bottom;verticalAlign=top;outlineConnect=0;align=center;shape=mxgraph.office.users.user;fillColor=#f0a30a;fontColor=#000000;strokeColor=#000000;" parent="Pon-2stS2eXL-ErVrg9i-1" vertex="1">
          <mxGeometry x="185" y="320" width="40" height="40" as="geometry" />
        </mxCell>
        <mxCell id="Pon-2stS2eXL-ErVrg9i-34" value="Alessandro" style="sketch=0;pointerEvents=1;shadow=0;dashed=0;html=1;labelPosition=center;verticalLabelPosition=bottom;verticalAlign=top;outlineConnect=0;align=center;shape=mxgraph.office.users.user;fillColor=#a20025;fontColor=#000000;strokeColor=#000000;" parent="Pon-2stS2eXL-ErVrg9i-1" vertex="1">
          <mxGeometry x="101" y="320" width="40" height="40" as="geometry" />
        </mxCell>
        <mxCell id="Pon-2stS2eXL-ErVrg9i-35" value="Tonetti" style="sketch=0;pointerEvents=1;shadow=0;dashed=0;html=1;labelPosition=center;verticalLabelPosition=bottom;verticalAlign=top;outlineConnect=0;align=center;shape=mxgraph.office.users.user;fillColor=#a20025;fontColor=#000000;strokeColor=#000000;" parent="Pon-2stS2eXL-ErVrg9i-1" vertex="1">
          <mxGeometry x="101" y="50" width="40" height="40" as="geometry" />
        </mxCell>
        <mxCell id="Pon-2stS2eXL-ErVrg9i-36" value="BID" style="rounded=1;whiteSpace=wrap;html=1;fontSize=10;" parent="Pon-2stS2eXL-ErVrg9i-1" vertex="1">
          <mxGeometry x="-130" y="80" width="80" height="20" as="geometry" />
        </mxCell>
        <mxCell id="Pon-2stS2eXL-ErVrg9i-37" value="TOS" style="rounded=1;whiteSpace=wrap;html=1;fontSize=10;" parent="Pon-2stS2eXL-ErVrg9i-1" vertex="1">
          <mxGeometry x="-130" y="600.63" width="80" height="20" as="geometry" />
        </mxCell>
        <mxCell id="Pon-2stS2eXL-ErVrg9i-38" value="" style="rounded=1;whiteSpace=wrap;html=1;fillStyle=auto;opacity=20;fillColor=#1ba1e2;strokeColor=#006EAF;fontColor=#ffffff;" parent="Pon-2stS2eXL-ErVrg9i-1" vertex="1">
          <mxGeometry x="790" y="-250" width="70" height="970" as="geometry" />
        </mxCell>
        <mxCell id="Pon-2stS2eXL-ErVrg9i-39" value="QA" style="rounded=1;whiteSpace=wrap;html=1;fillColor=#FFFFFF;fontSize=9;" parent="Pon-2stS2eXL-ErVrg9i-1" vertex="1">
          <mxGeometry x="798" y="-237" width="50" height="20" as="geometry" />
        </mxCell>
        <mxCell id="Pon-2stS2eXL-ErVrg9i-40" value="André" style="sketch=0;pointerEvents=1;shadow=0;dashed=0;html=1;labelPosition=center;verticalLabelPosition=bottom;verticalAlign=top;outlineConnect=0;align=center;shape=mxgraph.office.users.user;fillColor=#969696;" parent="Pon-2stS2eXL-ErVrg9i-1" vertex="1">
          <mxGeometry x="295" y="-210" width="40" height="40" as="geometry" />
        </mxCell>
        <mxCell id="Pon-2stS2eXL-ErVrg9i-41" value="Luizão" style="sketch=0;pointerEvents=1;shadow=0;dashed=0;html=1;labelPosition=center;verticalLabelPosition=bottom;verticalAlign=top;outlineConnect=0;align=center;shape=mxgraph.office.users.user;fillColor=#969696;" parent="Pon-2stS2eXL-ErVrg9i-1" vertex="1">
          <mxGeometry x="295" y="-140" width="40" height="40" as="geometry" />
        </mxCell>
        <mxCell id="Pon-2stS2eXL-ErVrg9i-42" value="Daniel" style="sketch=0;pointerEvents=1;shadow=0;dashed=0;html=1;labelPosition=center;verticalLabelPosition=bottom;verticalAlign=top;outlineConnect=0;align=center;shape=mxgraph.office.users.user;fillColor=#969696;" parent="Pon-2stS2eXL-ErVrg9i-1" vertex="1">
          <mxGeometry x="295" y="-70" width="40" height="40" as="geometry" />
        </mxCell>
        <mxCell id="Pon-2stS2eXL-ErVrg9i-43" value="Aldir" style="sketch=0;pointerEvents=1;shadow=0;dashed=0;html=1;labelPosition=center;verticalLabelPosition=bottom;verticalAlign=top;outlineConnect=0;align=center;shape=mxgraph.office.users.user;fillColor=#FFFF00;" parent="Pon-2stS2eXL-ErVrg9i-1" vertex="1">
          <mxGeometry x="380" y="376" width="40" height="40" as="geometry" />
        </mxCell>
        <mxCell id="Pon-2stS2eXL-ErVrg9i-44" value="Menon" style="sketch=0;pointerEvents=1;shadow=0;dashed=0;html=1;labelPosition=center;verticalLabelPosition=bottom;verticalAlign=top;outlineConnect=0;align=center;shape=mxgraph.office.users.user;fillColor=#a20025;fontColor=#000000;strokeColor=#000000;" parent="Pon-2stS2eXL-ErVrg9i-1" vertex="1">
          <mxGeometry x="101" y="588.8" width="40" height="40" as="geometry" />
        </mxCell>
        <mxCell id="Pon-2stS2eXL-ErVrg9i-45" value="Henrique" style="sketch=0;pointerEvents=1;shadow=0;dashed=0;html=1;strokeColor=default;labelPosition=center;verticalLabelPosition=bottom;verticalAlign=top;outlineConnect=0;align=center;shape=mxgraph.office.users.user;fillColor=#97D077;" parent="Pon-2stS2eXL-ErVrg9i-1" vertex="1">
          <mxGeometry x="475" y="259" width="29" height="30" as="geometry" />
        </mxCell>
        <mxCell id="Pon-2stS2eXL-ErVrg9i-46" value="&lt;font color=&quot;#000000&quot;&gt;Rafael&lt;/font&gt;" style="sketch=0;pointerEvents=1;shadow=0;dashed=0;html=1;labelPosition=center;verticalLabelPosition=bottom;verticalAlign=top;outlineConnect=0;align=center;shape=mxgraph.office.users.user;fillColor=#66B2FF;fontColor=#ffffff;strokeColor=#000000;" parent="Pon-2stS2eXL-ErVrg9i-1" vertex="1">
          <mxGeometry x="805" y="55" width="40" height="40" as="geometry" />
        </mxCell>
        <mxCell id="Pon-2stS2eXL-ErVrg9i-47" value="&lt;font color=&quot;#000000&quot;&gt;Lúcia&lt;/font&gt;" style="sketch=0;pointerEvents=1;shadow=0;dashed=0;html=1;labelPosition=center;verticalLabelPosition=bottom;verticalAlign=top;outlineConnect=0;align=center;shape=mxgraph.office.users.user;fillColor=#66B2FF;fontColor=#ffffff;strokeColor=#000000;" parent="Pon-2stS2eXL-ErVrg9i-1" vertex="1">
          <mxGeometry x="803" y="259" width="40" height="40" as="geometry" />
        </mxCell>
        <mxCell id="Pon-2stS2eXL-ErVrg9i-48" value="&lt;font color=&quot;#000000&quot;&gt;João&lt;/font&gt;" style="sketch=0;pointerEvents=1;shadow=0;dashed=0;html=1;labelPosition=center;verticalLabelPosition=bottom;verticalAlign=top;outlineConnect=0;align=center;shape=mxgraph.office.users.user;fillColor=#66B2FF;fontColor=#ffffff;strokeColor=#000000;" parent="Pon-2stS2eXL-ErVrg9i-1" vertex="1">
          <mxGeometry x="805" y="369" width="40" height="40" as="geometry" />
        </mxCell>
        <mxCell id="Pon-2stS2eXL-ErVrg9i-49" value="[SAAGRA] Ailem" style="rounded=1;whiteSpace=wrap;html=1;fontSize=11;align=left;" parent="Pon-2stS2eXL-ErVrg9i-1" vertex="1">
          <mxGeometry x="528" y="660" width="90" height="20" as="geometry" />
        </mxCell>
        <mxCell id="Pon-2stS2eXL-ErVrg9i-50" value="[B3] Fábio" style="rounded=1;whiteSpace=wrap;html=1;fontSize=11;align=left;" parent="Pon-2stS2eXL-ErVrg9i-1" vertex="1">
          <mxGeometry x="528" y="15" width="90" height="20" as="geometry" />
        </mxCell>
        <mxCell id="Pon-2stS2eXL-ErVrg9i-51" value="[YMS] Eberson" style="rounded=1;whiteSpace=wrap;html=1;fontSize=11;align=left;" parent="Pon-2stS2eXL-ErVrg9i-1" vertex="1">
          <mxGeometry x="528" y="35" width="90" height="20" as="geometry" />
        </mxCell>
        <mxCell id="Pon-2stS2eXL-ErVrg9i-52" value="[Rota] Gabriel" style="rounded=1;whiteSpace=wrap;html=1;fontSize=11;align=left;" parent="Pon-2stS2eXL-ErVrg9i-1" vertex="1">
          <mxGeometry x="618" y="430" width="90" height="20" as="geometry" />
        </mxCell>
        <mxCell id="Pon-2stS2eXL-ErVrg9i-53" value="Marcelo" style="rounded=1;whiteSpace=wrap;html=1;fontSize=11;align=left;" parent="Pon-2stS2eXL-ErVrg9i-1" vertex="1">
          <mxGeometry x="528" y="55" width="90" height="20" as="geometry" />
        </mxCell>
        <mxCell id="Pon-2stS2eXL-ErVrg9i-54" value="Moises" style="rounded=1;whiteSpace=wrap;html=1;fontSize=11;align=left;" parent="Pon-2stS2eXL-ErVrg9i-1" vertex="1">
          <mxGeometry x="528" y="75" width="90" height="20" as="geometry" />
        </mxCell>
        <mxCell id="Pon-2stS2eXL-ErVrg9i-55" value="[RUMO] Matheus" style="rounded=1;whiteSpace=wrap;html=1;fontSize=11;align=left;" parent="Pon-2stS2eXL-ErVrg9i-1" vertex="1">
          <mxGeometry x="528" y="470" width="90" height="20" as="geometry" />
        </mxCell>
        <mxCell id="Pon-2stS2eXL-ErVrg9i-56" value="[RUMO] Igor" style="rounded=1;whiteSpace=wrap;html=1;fontSize=11;align=left;" parent="Pon-2stS2eXL-ErVrg9i-1" vertex="1">
          <mxGeometry x="528" y="490" width="90" height="20" as="geometry" />
        </mxCell>
        <mxCell id="Pon-2stS2eXL-ErVrg9i-57" value="[RUMO] Marcos" style="rounded=1;whiteSpace=wrap;html=1;fontSize=11;align=left;" parent="Pon-2stS2eXL-ErVrg9i-1" vertex="1">
          <mxGeometry x="528" y="510" width="90" height="20" as="geometry" />
        </mxCell>
        <mxCell id="Pon-2stS2eXL-ErVrg9i-58" value="[Mosaic] Murilo" style="rounded=1;whiteSpace=wrap;html=1;fontSize=11;align=left;" parent="Pon-2stS2eXL-ErVrg9i-1" vertex="1">
          <mxGeometry x="528" y="349" width="90" height="20" as="geometry" />
        </mxCell>
        <mxCell id="Pon-2stS2eXL-ErVrg9i-59" value="[Mosaic] Serafim" style="rounded=1;whiteSpace=wrap;html=1;fontSize=11;align=left;" parent="Pon-2stS2eXL-ErVrg9i-1" vertex="1">
          <mxGeometry x="528" y="369" width="90" height="20" as="geometry" />
        </mxCell>
        <mxCell id="Pon-2stS2eXL-ErVrg9i-60" value="[BID] Bielski" style="rounded=1;whiteSpace=wrap;html=1;fontSize=11;align=left;" parent="Pon-2stS2eXL-ErVrg9i-1" vertex="1">
          <mxGeometry x="528" y="95" width="90" height="20" as="geometry" />
        </mxCell>
        <mxCell id="Pon-2stS2eXL-ErVrg9i-61" value="[BID] Everton" style="rounded=1;whiteSpace=wrap;html=1;fontSize=11;align=left;" parent="Pon-2stS2eXL-ErVrg9i-1" vertex="1">
          <mxGeometry x="528" y="115" width="90" height="20" as="geometry" />
        </mxCell>
        <mxCell id="Pon-2stS2eXL-ErVrg9i-62" value="[TSM] Schram" style="rounded=1;whiteSpace=wrap;html=1;fontSize=11;align=left;" parent="Pon-2stS2eXL-ErVrg9i-1" vertex="1">
          <mxGeometry x="528" y="230" width="90" height="20" as="geometry" />
        </mxCell>
        <mxCell id="Pon-2stS2eXL-ErVrg9i-63" value="[TSM] Anderson" style="rounded=1;whiteSpace=wrap;html=1;fontSize=11;align=left;" parent="Pon-2stS2eXL-ErVrg9i-1" vertex="1">
          <mxGeometry x="528" y="250" width="90" height="20" as="geometry" />
        </mxCell>
        <mxCell id="Pon-2stS2eXL-ErVrg9i-64" value="[TSM] André B." style="rounded=1;whiteSpace=wrap;html=1;fontSize=11;align=left;" parent="Pon-2stS2eXL-ErVrg9i-1" vertex="1">
          <mxGeometry x="528" y="270" width="90" height="20" as="geometry" />
        </mxCell>
        <mxCell id="Pon-2stS2eXL-ErVrg9i-65" value="[TSM] Mateus A." style="rounded=1;whiteSpace=wrap;html=1;fontSize=11;align=left;" parent="Pon-2stS2eXL-ErVrg9i-1" vertex="1">
          <mxGeometry x="528" y="290" width="90" height="20" as="geometry" />
        </mxCell>
        <mxCell id="Pon-2stS2eXL-ErVrg9i-66" value="[TSM] Nicolas" style="rounded=1;whiteSpace=wrap;html=1;fontSize=11;align=left;" parent="Pon-2stS2eXL-ErVrg9i-1" vertex="1">
          <mxGeometry x="528" y="310" width="90" height="20" as="geometry" />
        </mxCell>
        <mxCell id="Pon-2stS2eXL-ErVrg9i-67" value="[SAAGRA]Felipe" style="rounded=1;whiteSpace=wrap;html=1;fontSize=11;align=left;" parent="Pon-2stS2eXL-ErVrg9i-1" vertex="1">
          <mxGeometry x="669.21" y="598.8" width="92.06" height="20" as="geometry" />
        </mxCell>
        <mxCell id="Pon-2stS2eXL-ErVrg9i-68" value="[GTM] Derick" style="rounded=1;whiteSpace=wrap;html=1;fontSize=11;align=left;" parent="Pon-2stS2eXL-ErVrg9i-1" vertex="1">
          <mxGeometry x="640" y="640.63" width="92.06" height="20" as="geometry" />
        </mxCell>
        <mxCell id="Pon-2stS2eXL-ErVrg9i-69" value="[TSM] Edgar" style="rounded=1;whiteSpace=wrap;html=1;fontSize=11;align=left;" parent="Pon-2stS2eXL-ErVrg9i-1" vertex="1">
          <mxGeometry x="669.21" y="264" width="92.06" height="20" as="geometry" />
        </mxCell>
        <mxCell id="Pon-2stS2eXL-ErVrg9i-70" value="[Mosaic] Dalssoto" style="rounded=1;whiteSpace=wrap;html=1;fontSize=11;align=left;" parent="Pon-2stS2eXL-ErVrg9i-1" vertex="1">
          <mxGeometry x="618.0000000000002" y="390" width="90" height="20" as="geometry" />
        </mxCell>
        <mxCell id="Pon-2stS2eXL-ErVrg9i-71" value="[GTM] Luiz" style="rounded=1;whiteSpace=wrap;html=1;fontSize=11;align=left;" parent="Pon-2stS2eXL-ErVrg9i-1" vertex="1">
          <mxGeometry x="528" y="640" width="90" height="20" as="geometry" />
        </mxCell>
        <mxCell id="Pon-2stS2eXL-ErVrg9i-72" value="[GTM] Luciando" style="rounded=1;whiteSpace=wrap;html=1;fontSize=11;align=left;" parent="Pon-2stS2eXL-ErVrg9i-1" vertex="1">
          <mxGeometry x="528" y="620" width="90" height="20" as="geometry" />
        </mxCell>
        <mxCell id="Pon-2stS2eXL-ErVrg9i-73" value="[TOS] Eduardo" style="rounded=1;whiteSpace=wrap;html=1;fontSize=11;align=left;" parent="Pon-2stS2eXL-ErVrg9i-1" vertex="1">
          <mxGeometry x="528" y="598.8" width="90" height="20" as="geometry" />
        </mxCell>
        <mxCell id="Pon-2stS2eXL-ErVrg9i-74" value="GTM" style="rounded=1;whiteSpace=wrap;html=1;fontSize=10;" parent="Pon-2stS2eXL-ErVrg9i-1" vertex="1">
          <mxGeometry x="-130" y="620.63" width="80" height="20" as="geometry" />
        </mxCell>
        <mxCell id="Pon-2stS2eXL-ErVrg9i-75" value="SAAGRA" style="rounded=1;whiteSpace=wrap;html=1;fontSize=10;" parent="Pon-2stS2eXL-ErVrg9i-1" vertex="1">
          <mxGeometry x="-130" y="640.63" width="80" height="20" as="geometry" />
        </mxCell>
        <mxCell id="Pon-2stS2eXL-ErVrg9i-77" value="&lt;font color=&quot;#000000&quot;&gt;Samuel&lt;/font&gt;" style="sketch=0;pointerEvents=1;shadow=0;dashed=0;html=1;labelPosition=center;verticalLabelPosition=bottom;verticalAlign=top;outlineConnect=0;align=center;shape=mxgraph.office.users.user;fillColor=#66B2FF;fontColor=#ffffff;strokeColor=#000000;" parent="Pon-2stS2eXL-ErVrg9i-1" vertex="1">
          <mxGeometry x="805" y="620" width="40" height="40" as="geometry" />
        </mxCell>
        <mxCell id="dvxyOFayFe7a5-isRIdK-0" value="Herminio" style="sketch=0;pointerEvents=1;shadow=0;dashed=0;html=1;strokeColor=default;labelPosition=center;verticalLabelPosition=bottom;verticalAlign=top;outlineConnect=0;align=center;shape=mxgraph.office.users.user;fillColor=#97D077;" parent="Pon-2stS2eXL-ErVrg9i-1" vertex="1">
          <mxGeometry x="475" y="480" width="29" height="30" as="geometry" />
        </mxCell>
      </root>
    </mxGraphModel>
  </diagram>
  <diagram id="bXazobEEkjqedL4T1Qyy" name="futuro_ideal">
    <mxGraphModel dx="2192" dy="1912" grid="1" gridSize="10" guides="1" tooltips="1" connect="1" arrows="1" fold="1" page="1" pageScale="1" pageWidth="827" pageHeight="1169" math="0" shadow="0">
      <root>
        <mxCell id="0" />
        <mxCell id="1" parent="0" />
        <mxCell id="YLlhg13BmBhQMkH7Ri9L-1" value="Desenv." style="rounded=1;whiteSpace=wrap;html=1;fillColor=default;verticalAlign=top;dashed=1;fillStyle=auto;glass=0;perimeterSpacing=2;strokeWidth=3;fontSize=19;arcSize=3;" parent="1" vertex="1">
          <mxGeometry x="270" y="-250" width="600" height="870" as="geometry" />
        </mxCell>
        <mxCell id="YLlhg13BmBhQMkH7Ri9L-2" value="Produto" style="rounded=1;whiteSpace=wrap;html=1;fillColor=default;verticalAlign=top;dashed=1;fillStyle=auto;glass=0;perimeterSpacing=2;strokeWidth=3;fontSize=19;arcSize=4;" parent="1" vertex="1">
          <mxGeometry x="70" y="-250" width="180" height="870" as="geometry" />
        </mxCell>
        <mxCell id="YLlhg13BmBhQMkH7Ri9L-3" value="" style="rounded=1;whiteSpace=wrap;html=1;fillColor=#e51400;strokeColor=#B20000;opacity=60;fontColor=#ffffff;" parent="1" vertex="1">
          <mxGeometry x="86" y="-220" width="70" height="830" as="geometry" />
        </mxCell>
        <mxCell id="YLlhg13BmBhQMkH7Ri9L-4" value="" style="rounded=1;whiteSpace=wrap;html=1;fillColor=#ffcd28;strokeColor=#d79b00;opacity=60;gradientColor=#ffa500;" parent="1" vertex="1">
          <mxGeometry x="170" y="-220" width="70" height="830" as="geometry" />
        </mxCell>
        <mxCell id="YLlhg13BmBhQMkH7Ri9L-5" value="" style="rounded=1;whiteSpace=wrap;html=1;fillColor=#f5f5f5;strokeColor=#666666;opacity=80;gradientColor=#b3b3b3;" parent="1" vertex="1">
          <mxGeometry x="280" y="-220" width="70" height="830" as="geometry" />
        </mxCell>
        <mxCell id="YLlhg13BmBhQMkH7Ri9L-6" value="" style="rounded=1;whiteSpace=wrap;html=1;fillColor=#e3c800;fontColor=#000000;strokeColor=#B09500;opacity=30;" parent="1" vertex="1">
          <mxGeometry x="362" y="-220" width="70" height="830" as="geometry" />
        </mxCell>
        <mxCell id="YLlhg13BmBhQMkH7Ri9L-7" value="" style="rounded=1;whiteSpace=wrap;html=1;fillStyle=auto;opacity=20;fillColor=#d80073;strokeColor=#A50040;fontColor=#ffffff;" parent="1" vertex="1">
          <mxGeometry x="660.47" y="-220" width="109.53" height="830" as="geometry" />
        </mxCell>
        <mxCell id="YLlhg13BmBhQMkH7Ri9L-8" value="" style="rounded=1;whiteSpace=wrap;html=1;fillStyle=auto;opacity=50;fillColor=#dae8fc;strokeColor=#6c8ebf;" parent="1" vertex="1">
          <mxGeometry x="-30" y="410" width="920" height="190" as="geometry" />
        </mxCell>
        <mxCell id="YLlhg13BmBhQMkH7Ri9L-9" value="" style="rounded=1;whiteSpace=wrap;html=1;fillStyle=auto;opacity=50;fillColor=#f8cecc;strokeColor=#b85450;" parent="1" vertex="1">
          <mxGeometry x="-30" y="30" width="920" height="120" as="geometry" />
        </mxCell>
        <mxCell id="YLlhg13BmBhQMkH7Ri9L-10" value="" style="rounded=1;whiteSpace=wrap;html=1;fillStyle=auto;opacity=50;fillColor=#d5e8d4;strokeColor=#82b366;" parent="1" vertex="1">
          <mxGeometry x="-30" y="150" width="920" height="260" as="geometry" />
        </mxCell>
        <mxCell id="YLlhg13BmBhQMkH7Ri9L-11" value="Darossi" style="sketch=0;pointerEvents=1;shadow=0;dashed=0;html=1;strokeColor=default;labelPosition=center;verticalLabelPosition=bottom;verticalAlign=top;outlineConnect=0;align=center;shape=mxgraph.office.users.user;fillColor=#FF6666;" parent="1" vertex="1">
          <mxGeometry x="462.5" y="59.38" width="40" height="40" as="geometry" />
        </mxCell>
        <mxCell id="YLlhg13BmBhQMkH7Ri9L-12" value="Gabriel" style="sketch=0;pointerEvents=1;shadow=0;dashed=0;html=1;strokeColor=default;labelPosition=center;verticalLabelPosition=bottom;verticalAlign=top;outlineConnect=0;align=center;shape=mxgraph.office.users.user;fillColor=#97D077;" parent="1" vertex="1">
          <mxGeometry x="462.5" y="170" width="43" height="40" as="geometry" />
        </mxCell>
        <mxCell id="YLlhg13BmBhQMkH7Ri9L-13" value="&lt;font color=&quot;#000000&quot;&gt;Leonardo&lt;/font&gt;" style="sketch=0;pointerEvents=1;shadow=0;dashed=0;html=1;strokeColor=#001DBC;labelPosition=center;verticalLabelPosition=bottom;verticalAlign=top;outlineConnect=0;align=center;shape=mxgraph.office.users.user;fillColor=#0050ef;fontColor=#FFFFFF;" parent="1" vertex="1">
          <mxGeometry x="464" y="438.83" width="40" height="40" as="geometry" />
        </mxCell>
        <mxCell id="YLlhg13BmBhQMkH7Ri9L-14" value="&lt;font color=&quot;#000000&quot;&gt;Guilherme&lt;/font&gt;" style="sketch=0;pointerEvents=1;shadow=0;dashed=0;html=1;strokeColor=default;fillColor=#d80073;labelPosition=center;verticalLabelPosition=bottom;verticalAlign=top;outlineConnect=0;align=center;shape=mxgraph.office.users.administrator;fontColor=#ffffff;" parent="1" vertex="1">
          <mxGeometry x="695.24" y="-170" width="50" height="46" as="geometry" />
        </mxCell>
        <mxCell id="YLlhg13BmBhQMkH7Ri9L-15" value="Análise" style="rounded=1;whiteSpace=wrap;html=1;fontSize=10;" parent="1" vertex="1">
          <mxGeometry x="374" y="-210" width="40" height="20" as="geometry" />
        </mxCell>
        <mxCell id="YLlhg13BmBhQMkH7Ri9L-16" value="Arquitetura" style="rounded=1;whiteSpace=wrap;html=1;fontSize=9;" parent="1" vertex="1">
          <mxGeometry x="285" y="-210" width="60" height="20" as="geometry" />
        </mxCell>
        <mxCell id="YLlhg13BmBhQMkH7Ri9L-17" value="B3" style="rounded=1;whiteSpace=wrap;html=1;fontSize=10;" parent="1" vertex="1">
          <mxGeometry x="-130" y="38.76" width="80" height="20" as="geometry" />
        </mxCell>
        <mxCell id="YLlhg13BmBhQMkH7Ri9L-18" value="YMS" style="rounded=1;whiteSpace=wrap;html=1;fontSize=10;" parent="1" vertex="1">
          <mxGeometry x="-130" y="58.76" width="80" height="20" as="geometry" />
        </mxCell>
        <mxCell id="YLlhg13BmBhQMkH7Ri9L-19" value="TSM" style="rounded=1;whiteSpace=wrap;html=1;fontSize=10;" parent="1" vertex="1">
          <mxGeometry x="-130" y="173" width="80" height="20" as="geometry" />
        </mxCell>
        <mxCell id="YLlhg13BmBhQMkH7Ri9L-20" value="GPED" style="rounded=1;whiteSpace=wrap;html=1;fontSize=10;" parent="1" vertex="1">
          <mxGeometry x="-130" y="193" width="80" height="20" as="geometry" />
        </mxCell>
        <mxCell id="YLlhg13BmBhQMkH7Ri9L-21" value="Rota Certa" style="rounded=1;whiteSpace=wrap;html=1;fontSize=10;" parent="1" vertex="1">
          <mxGeometry x="-130" y="78.76" width="80" height="20" as="geometry" />
        </mxCell>
        <mxCell id="YLlhg13BmBhQMkH7Ri9L-22" value="Totem" style="rounded=1;whiteSpace=wrap;html=1;fontSize=10;" parent="1" vertex="1">
          <mxGeometry x="-130" y="409.43" width="80" height="20" as="geometry" />
        </mxCell>
        <mxCell id="YLlhg13BmBhQMkH7Ri9L-23" value="Painel Chamadas" style="rounded=1;whiteSpace=wrap;html=1;fontSize=9;" parent="1" vertex="1">
          <mxGeometry x="-130" y="429.43" width="80" height="20" as="geometry" />
        </mxCell>
        <mxCell id="YLlhg13BmBhQMkH7Ri9L-24" value="1" style="rounded=1;whiteSpace=wrap;html=1;fillColor=#FFFFFF;" parent="1" vertex="1">
          <mxGeometry x="-10" y="64.38" width="60" height="40" as="geometry" />
        </mxCell>
        <mxCell id="YLlhg13BmBhQMkH7Ri9L-25" value="3" style="rounded=1;whiteSpace=wrap;html=1;fillColor=#FFFFFF;" parent="1" vertex="1">
          <mxGeometry x="-10" y="481.26" width="60" height="40" as="geometry" />
        </mxCell>
        <mxCell id="YLlhg13BmBhQMkH7Ri9L-26" value="Sustentação" style="rounded=1;whiteSpace=wrap;html=1;fillColor=#FFFFFF;fontSize=9;" parent="1" vertex="1">
          <mxGeometry x="685.24" y="-210" width="60" height="20" as="geometry" />
        </mxCell>
        <mxCell id="YLlhg13BmBhQMkH7Ri9L-27" value="2" style="rounded=1;whiteSpace=wrap;html=1;fillColor=#FFFFFF;" parent="1" vertex="1">
          <mxGeometry x="-10" y="250" width="60" height="40" as="geometry" />
        </mxCell>
        <mxCell id="YLlhg13BmBhQMkH7Ri9L-28" value="PM" style="rounded=1;whiteSpace=wrap;html=1;fontSize=9;" parent="1" vertex="1">
          <mxGeometry x="101" y="-210" width="40" height="20" as="geometry" />
        </mxCell>
        <mxCell id="YLlhg13BmBhQMkH7Ri9L-29" value="PD" style="rounded=1;whiteSpace=wrap;html=1;fontSize=9;" parent="1" vertex="1">
          <mxGeometry x="185" y="-210" width="40" height="20" as="geometry" />
        </mxCell>
        <mxCell id="YLlhg13BmBhQMkH7Ri9L-30" value="Luis Felipe" style="sketch=0;pointerEvents=1;shadow=0;dashed=0;html=1;labelPosition=center;verticalLabelPosition=bottom;verticalAlign=top;outlineConnect=0;align=center;shape=mxgraph.office.users.user;fillColor=#FFFF00;" parent="1" vertex="1">
          <mxGeometry x="380" y="58.760000000000005" width="40" height="40" as="geometry" />
        </mxCell>
        <mxCell id="YLlhg13BmBhQMkH7Ri9L-31" value="Mathias" style="sketch=0;pointerEvents=1;shadow=0;dashed=0;html=1;labelPosition=center;verticalLabelPosition=bottom;verticalAlign=top;outlineConnect=0;align=center;shape=mxgraph.office.users.user;fillColor=#FFFF00;" parent="1" vertex="1">
          <mxGeometry x="377" y="210" width="40" height="40" as="geometry" />
        </mxCell>
        <mxCell id="YLlhg13BmBhQMkH7Ri9L-32" value="André" style="sketch=0;pointerEvents=1;shadow=0;dashed=0;html=1;labelPosition=center;verticalLabelPosition=bottom;verticalAlign=top;outlineConnect=0;align=center;shape=mxgraph.office.users.user;fillColor=#f0a30a;fontColor=#000000;strokeColor=#000000;" parent="1" vertex="1">
          <mxGeometry x="185" y="232" width="40" height="40" as="geometry" />
        </mxCell>
        <mxCell id="YLlhg13BmBhQMkH7Ri9L-33" value="Alessandro" style="sketch=0;pointerEvents=1;shadow=0;dashed=0;html=1;labelPosition=center;verticalLabelPosition=bottom;verticalAlign=top;outlineConnect=0;align=center;shape=mxgraph.office.users.user;fillColor=#a20025;fontColor=#000000;strokeColor=#000000;" parent="1" vertex="1">
          <mxGeometry x="101" y="233" width="40" height="40" as="geometry" />
        </mxCell>
        <mxCell id="YLlhg13BmBhQMkH7Ri9L-34" value="Tonetti" style="sketch=0;pointerEvents=1;shadow=0;dashed=0;html=1;labelPosition=center;verticalLabelPosition=bottom;verticalAlign=top;outlineConnect=0;align=center;shape=mxgraph.office.users.user;fillColor=#a20025;fontColor=#000000;strokeColor=#000000;" parent="1" vertex="1">
          <mxGeometry x="101" y="59.38" width="40" height="40" as="geometry" />
        </mxCell>
        <mxCell id="YLlhg13BmBhQMkH7Ri9L-35" value="BID" style="rounded=1;whiteSpace=wrap;html=1;fontSize=10;" parent="1" vertex="1">
          <mxGeometry x="-130" y="213" width="80" height="20" as="geometry" />
        </mxCell>
        <mxCell id="YLlhg13BmBhQMkH7Ri9L-36" value="TOS" style="rounded=1;whiteSpace=wrap;html=1;fontSize=10;" parent="1" vertex="1">
          <mxGeometry x="-130" y="449.43" width="80" height="20" as="geometry" />
        </mxCell>
        <mxCell id="YLlhg13BmBhQMkH7Ri9L-37" value="" style="rounded=1;whiteSpace=wrap;html=1;fillStyle=auto;opacity=20;fillColor=#1ba1e2;strokeColor=#006EAF;fontColor=#ffffff;" parent="1" vertex="1">
          <mxGeometry x="790" y="-220" width="70" height="830" as="geometry" />
        </mxCell>
        <mxCell id="YLlhg13BmBhQMkH7Ri9L-38" value="QA" style="rounded=1;whiteSpace=wrap;html=1;fillColor=#FFFFFF;fontSize=9;" parent="1" vertex="1">
          <mxGeometry x="798" y="-210" width="50" height="20" as="geometry" />
        </mxCell>
        <mxCell id="YLlhg13BmBhQMkH7Ri9L-39" value="André" style="sketch=0;pointerEvents=1;shadow=0;dashed=0;html=1;labelPosition=center;verticalLabelPosition=bottom;verticalAlign=top;outlineConnect=0;align=center;shape=mxgraph.office.users.user;fillColor=#969696;" parent="1" vertex="1">
          <mxGeometry x="295" y="-180" width="40" height="40" as="geometry" />
        </mxCell>
        <mxCell id="YLlhg13BmBhQMkH7Ri9L-40" value="Luizão" style="sketch=0;pointerEvents=1;shadow=0;dashed=0;html=1;labelPosition=center;verticalLabelPosition=bottom;verticalAlign=top;outlineConnect=0;align=center;shape=mxgraph.office.users.user;fillColor=#969696;" parent="1" vertex="1">
          <mxGeometry x="295" y="-110" width="40" height="40" as="geometry" />
        </mxCell>
        <mxCell id="YLlhg13BmBhQMkH7Ri9L-41" value="Daniel" style="sketch=0;pointerEvents=1;shadow=0;dashed=0;html=1;labelPosition=center;verticalLabelPosition=bottom;verticalAlign=top;outlineConnect=0;align=center;shape=mxgraph.office.users.user;fillColor=#969696;" parent="1" vertex="1">
          <mxGeometry x="295" y="-40" width="40" height="40" as="geometry" />
        </mxCell>
        <mxCell id="YLlhg13BmBhQMkH7Ri9L-42" value="Aldir" style="sketch=0;pointerEvents=1;shadow=0;dashed=0;html=1;labelPosition=center;verticalLabelPosition=bottom;verticalAlign=top;outlineConnect=0;align=center;shape=mxgraph.office.users.user;fillColor=#FFFF00;" parent="1" vertex="1">
          <mxGeometry x="377" y="283" width="40" height="40" as="geometry" />
        </mxCell>
        <mxCell id="YLlhg13BmBhQMkH7Ri9L-43" value="Menon" style="sketch=0;pointerEvents=1;shadow=0;dashed=0;html=1;labelPosition=center;verticalLabelPosition=bottom;verticalAlign=top;outlineConnect=0;align=center;shape=mxgraph.office.users.user;fillColor=#a20025;fontColor=#000000;strokeColor=#000000;" parent="1" vertex="1">
          <mxGeometry x="101" y="469.42999999999995" width="40" height="40" as="geometry" />
        </mxCell>
        <mxCell id="YLlhg13BmBhQMkH7Ri9L-46" value="&lt;font color=&quot;#000000&quot;&gt;Rafael&lt;/font&gt;" style="sketch=0;pointerEvents=1;shadow=0;dashed=0;html=1;labelPosition=center;verticalLabelPosition=bottom;verticalAlign=top;outlineConnect=0;align=center;shape=mxgraph.office.users.user;fillColor=#66B2FF;fontColor=#ffffff;strokeColor=#000000;" parent="1" vertex="1">
          <mxGeometry x="805" y="58.76" width="40" height="40" as="geometry" />
        </mxCell>
        <mxCell id="YLlhg13BmBhQMkH7Ri9L-47" value="&lt;font color=&quot;#000000&quot;&gt;Lúcia&lt;/font&gt;" style="sketch=0;pointerEvents=1;shadow=0;dashed=0;html=1;labelPosition=center;verticalLabelPosition=bottom;verticalAlign=top;outlineConnect=0;align=center;shape=mxgraph.office.users.user;fillColor=#66B2FF;fontColor=#ffffff;strokeColor=#000000;" parent="1" vertex="1">
          <mxGeometry x="802" y="203" width="40" height="40" as="geometry" />
        </mxCell>
        <mxCell id="YLlhg13BmBhQMkH7Ri9L-48" value="&lt;font color=&quot;#000000&quot;&gt;João&lt;/font&gt;" style="sketch=0;pointerEvents=1;shadow=0;dashed=0;html=1;labelPosition=center;verticalLabelPosition=bottom;verticalAlign=top;outlineConnect=0;align=center;shape=mxgraph.office.users.user;fillColor=#66B2FF;fontColor=#ffffff;strokeColor=#000000;" parent="1" vertex="1">
          <mxGeometry x="804" y="273" width="40" height="40" as="geometry" />
        </mxCell>
        <mxCell id="YLlhg13BmBhQMkH7Ri9L-49" value="[SAAGRA] Ailem" style="rounded=1;whiteSpace=wrap;html=1;fontSize=11;align=left;" parent="1" vertex="1">
          <mxGeometry x="530" y="480.03" width="90" height="20" as="geometry" />
        </mxCell>
        <mxCell id="YLlhg13BmBhQMkH7Ri9L-50" value="[B3] Fábio" style="rounded=1;whiteSpace=wrap;html=1;fontSize=11;align=left;" parent="1" vertex="1">
          <mxGeometry x="530" y="39.38" width="90" height="20" as="geometry" />
        </mxCell>
        <mxCell id="YLlhg13BmBhQMkH7Ri9L-51" value="[YMS] Eberson" style="rounded=1;whiteSpace=wrap;html=1;fontSize=11;align=left;" parent="1" vertex="1">
          <mxGeometry x="530" y="59.38" width="90" height="20" as="geometry" />
        </mxCell>
        <mxCell id="YLlhg13BmBhQMkH7Ri9L-52" value="[Rota] Gabriel" style="rounded=1;whiteSpace=wrap;html=1;fontSize=11;align=left;" parent="1" vertex="1">
          <mxGeometry x="530" y="79.38" width="90" height="20" as="geometry" />
        </mxCell>
        <mxCell id="YLlhg13BmBhQMkH7Ri9L-53" value="Marcelo" style="rounded=1;whiteSpace=wrap;html=1;fontSize=11;align=left;" parent="1" vertex="1">
          <mxGeometry x="530" y="99.38" width="90" height="20" as="geometry" />
        </mxCell>
        <mxCell id="YLlhg13BmBhQMkH7Ri9L-54" value="Moises" style="rounded=1;whiteSpace=wrap;html=1;fontSize=11;align=left;" parent="1" vertex="1">
          <mxGeometry x="530" y="119.38" width="90" height="20" as="geometry" />
        </mxCell>
        <mxCell id="YLlhg13BmBhQMkH7Ri9L-55" value="[RUMO] Matheus" style="rounded=1;whiteSpace=wrap;html=1;fontSize=11;align=left;" parent="1" vertex="1">
          <mxGeometry x="530" y="529.43" width="90" height="20" as="geometry" />
        </mxCell>
        <mxCell id="YLlhg13BmBhQMkH7Ri9L-56" value="[RUMO] Igor" style="rounded=1;whiteSpace=wrap;html=1;fontSize=11;align=left;" parent="1" vertex="1">
          <mxGeometry x="530" y="549.43" width="90" height="20" as="geometry" />
        </mxCell>
        <mxCell id="YLlhg13BmBhQMkH7Ri9L-57" value="[RUMO] Herminio" style="rounded=1;whiteSpace=wrap;html=1;fontSize=11;align=left;" parent="1" vertex="1">
          <mxGeometry x="530" y="509.42999999999995" width="90" height="20" as="geometry" />
        </mxCell>
        <mxCell id="YLlhg13BmBhQMkH7Ri9L-58" value="[Mosaic] Murilo" style="rounded=1;whiteSpace=wrap;html=1;fontSize=11;align=left;" parent="1" vertex="1">
          <mxGeometry x="530" y="170" width="90" height="20" as="geometry" />
        </mxCell>
        <mxCell id="YLlhg13BmBhQMkH7Ri9L-59" value="[Mosaic] Serafim" style="rounded=1;whiteSpace=wrap;html=1;fontSize=11;align=left;" parent="1" vertex="1">
          <mxGeometry x="530" y="190" width="90" height="20" as="geometry" />
        </mxCell>
        <mxCell id="YLlhg13BmBhQMkH7Ri9L-60" value="[BID] Bielski" style="rounded=1;whiteSpace=wrap;html=1;fontSize=11;align=left;" parent="1" vertex="1">
          <mxGeometry x="530" y="217" width="90" height="20" as="geometry" />
        </mxCell>
        <mxCell id="YLlhg13BmBhQMkH7Ri9L-61" value="[BID] Everton" style="rounded=1;whiteSpace=wrap;html=1;fontSize=11;align=left;" parent="1" vertex="1">
          <mxGeometry x="530" y="233" width="90" height="20" as="geometry" />
        </mxCell>
        <mxCell id="YLlhg13BmBhQMkH7Ri9L-62" value="[TSM] Schram" style="rounded=1;whiteSpace=wrap;html=1;fontSize=11;align=left;" parent="1" vertex="1">
          <mxGeometry x="530" y="300" width="90" height="20" as="geometry" />
        </mxCell>
        <mxCell id="YLlhg13BmBhQMkH7Ri9L-63" value="[TSM] Anderson" style="rounded=1;whiteSpace=wrap;html=1;fontSize=11;align=left;" parent="1" vertex="1">
          <mxGeometry x="530" y="320" width="90" height="20" as="geometry" />
        </mxCell>
        <mxCell id="YLlhg13BmBhQMkH7Ri9L-64" value="[TSM] André B." style="rounded=1;whiteSpace=wrap;html=1;fontSize=11;align=left;" parent="1" vertex="1">
          <mxGeometry x="530" y="340" width="90" height="20" as="geometry" />
        </mxCell>
        <mxCell id="YLlhg13BmBhQMkH7Ri9L-65" value="[TSM] Mateus A." style="rounded=1;whiteSpace=wrap;html=1;fontSize=11;align=left;" parent="1" vertex="1">
          <mxGeometry x="530" y="360" width="90" height="20" as="geometry" />
        </mxCell>
        <mxCell id="YLlhg13BmBhQMkH7Ri9L-66" value="[TSM] Nicolas" style="rounded=1;whiteSpace=wrap;html=1;fontSize=11;align=left;" parent="1" vertex="1">
          <mxGeometry x="530" y="380" width="90" height="20" as="geometry" />
        </mxCell>
        <mxCell id="YLlhg13BmBhQMkH7Ri9L-67" value="[SAAGRA]Felipe" style="rounded=1;whiteSpace=wrap;html=1;fontSize=11;align=left;" parent="1" vertex="1">
          <mxGeometry x="669.2" y="469.42999999999995" width="92.06" height="20" as="geometry" />
        </mxCell>
        <mxCell id="YLlhg13BmBhQMkH7Ri9L-68" value="[GTM] Derick" style="rounded=1;whiteSpace=wrap;html=1;fontSize=11;align=left;" parent="1" vertex="1">
          <mxGeometry x="669.2" y="500.03" width="92.06" height="20" as="geometry" />
        </mxCell>
        <mxCell id="YLlhg13BmBhQMkH7Ri9L-69" value="[TSM] Edgar" style="rounded=1;whiteSpace=wrap;html=1;fontSize=11;align=left;" parent="1" vertex="1">
          <mxGeometry x="669.21" y="237" width="92.06" height="20" as="geometry" />
        </mxCell>
        <mxCell id="YLlhg13BmBhQMkH7Ri9L-70" value="[Mosaic] Dalssoto" style="rounded=1;whiteSpace=wrap;html=1;fontSize=11;align=left;" parent="1" vertex="1">
          <mxGeometry x="620.0000000000002" y="185" width="90" height="20" as="geometry" />
        </mxCell>
        <mxCell id="YLlhg13BmBhQMkH7Ri9L-71" value="[GTM] Luiz" style="rounded=1;whiteSpace=wrap;html=1;fontSize=11;align=left;" parent="1" vertex="1">
          <mxGeometry x="530" y="460.03" width="90" height="20" as="geometry" />
        </mxCell>
        <mxCell id="YLlhg13BmBhQMkH7Ri9L-72" value="[GTM] Luciando" style="rounded=1;whiteSpace=wrap;html=1;fontSize=11;align=left;" parent="1" vertex="1">
          <mxGeometry x="530" y="440.03" width="90" height="20" as="geometry" />
        </mxCell>
        <mxCell id="YLlhg13BmBhQMkH7Ri9L-74" value="[TOS] Eduardo" style="rounded=1;whiteSpace=wrap;html=1;fontSize=11;align=left;" parent="1" vertex="1">
          <mxGeometry x="530" y="418.8299999999999" width="90" height="20" as="geometry" />
        </mxCell>
        <mxCell id="YLlhg13BmBhQMkH7Ri9L-75" value="GTM" style="rounded=1;whiteSpace=wrap;html=1;fontSize=10;" parent="1" vertex="1">
          <mxGeometry x="-130" y="469.43" width="80" height="20" as="geometry" />
        </mxCell>
        <mxCell id="YLlhg13BmBhQMkH7Ri9L-76" value="SAAGRA" style="rounded=1;whiteSpace=wrap;html=1;fontSize=10;" parent="1" vertex="1">
          <mxGeometry x="-130" y="489.43" width="80" height="20" as="geometry" />
        </mxCell>
        <mxCell id="RDSlboQN1Cv0UnpBIQTj-2" value="&lt;font color=&quot;#000000&quot;&gt;Samuel&lt;/font&gt;" style="sketch=0;pointerEvents=1;shadow=0;dashed=0;html=1;labelPosition=center;verticalLabelPosition=bottom;verticalAlign=top;outlineConnect=0;align=center;shape=mxgraph.office.users.user;fillColor=#66B2FF;fontColor=#ffffff;strokeColor=#000000;" parent="1" vertex="1">
          <mxGeometry x="804" y="469.43" width="40" height="40" as="geometry" />
        </mxCell>
        <mxCell id="Q7x3IzUjU2dUnEavBFlh-1" value="[RUMO] César" style="rounded=1;whiteSpace=wrap;html=1;fontSize=11;align=left;fillColor=#008a00;fontColor=#ffffff;strokeColor=#005700;" parent="1" vertex="1">
          <mxGeometry x="620" y="569.43" width="90" height="20" as="geometry" />
        </mxCell>
        <mxCell id="Q7x3IzUjU2dUnEavBFlh-2" value="[TSM] Henrique" style="rounded=1;whiteSpace=wrap;html=1;fontSize=11;align=left;" parent="1" vertex="1">
          <mxGeometry x="530" y="280" width="90" height="20" as="geometry" />
        </mxCell>
        <mxCell id="Q7x3IzUjU2dUnEavBFlh-3" value="[TSM] Guiliver" style="rounded=1;whiteSpace=wrap;html=1;fontSize=11;align=left;fillColor=#008a00;strokeColor=#005700;fontColor=#ffffff;" parent="1" vertex="1">
          <mxGeometry x="530" y="260" width="90" height="20" as="geometry" />
        </mxCell>
      </root>
    </mxGraphModel>
  </diagram>
  <diagram name="Cópia do futuro_ideal" id="XoWlqIoZRWDue0Hzn1Ox">
    <mxGraphModel dx="2465" dy="2060" grid="1" gridSize="10" guides="1" tooltips="1" connect="1" arrows="1" fold="1" page="1" pageScale="1" pageWidth="827" pageHeight="1169" math="0" shadow="0">
      <root>
        <mxCell id="BwTGOBDLKmB829zKvNaI-0" />
        <mxCell id="BwTGOBDLKmB829zKvNaI-1" parent="BwTGOBDLKmB829zKvNaI-0" />
        <mxCell id="BwTGOBDLKmB829zKvNaI-2" value="Desenv." style="rounded=1;whiteSpace=wrap;html=1;fillColor=default;verticalAlign=top;dashed=1;fillStyle=auto;glass=0;perimeterSpacing=2;strokeWidth=3;fontSize=19;arcSize=3;" parent="BwTGOBDLKmB829zKvNaI-1" vertex="1">
          <mxGeometry x="260" y="-200" width="610" height="920" as="geometry" />
        </mxCell>
        <mxCell id="BwTGOBDLKmB829zKvNaI-3" value="Produto" style="rounded=1;whiteSpace=wrap;html=1;fillColor=default;verticalAlign=top;dashed=1;fillStyle=auto;glass=0;perimeterSpacing=2;strokeWidth=3;fontSize=19;arcSize=4;" parent="BwTGOBDLKmB829zKvNaI-1" vertex="1">
          <mxGeometry x="70" y="-200" width="180" height="920" as="geometry" />
        </mxCell>
        <mxCell id="BwTGOBDLKmB829zKvNaI-4" value="" style="rounded=1;whiteSpace=wrap;html=1;fillColor=#e51400;strokeColor=#B20000;opacity=60;fontColor=#ffffff;" parent="BwTGOBDLKmB829zKvNaI-1" vertex="1">
          <mxGeometry x="86" y="-170" width="70" height="880" as="geometry" />
        </mxCell>
        <mxCell id="BwTGOBDLKmB829zKvNaI-5" value="" style="rounded=1;whiteSpace=wrap;html=1;fillColor=#ffcd28;strokeColor=#d79b00;opacity=60;gradientColor=#ffa500;" parent="BwTGOBDLKmB829zKvNaI-1" vertex="1">
          <mxGeometry x="170" y="-170" width="70" height="880" as="geometry" />
        </mxCell>
        <mxCell id="BwTGOBDLKmB829zKvNaI-6" value="" style="rounded=1;whiteSpace=wrap;html=1;fillColor=#f5f5f5;strokeColor=#666666;opacity=80;gradientColor=#b3b3b3;" parent="BwTGOBDLKmB829zKvNaI-1" vertex="1">
          <mxGeometry x="270" y="-170" width="70" height="880" as="geometry" />
        </mxCell>
        <mxCell id="BwTGOBDLKmB829zKvNaI-7" value="" style="rounded=1;whiteSpace=wrap;html=1;fillColor=#e3c800;fontColor=#000000;strokeColor=#B09500;opacity=30;" parent="BwTGOBDLKmB829zKvNaI-1" vertex="1">
          <mxGeometry x="362" y="-170" width="70" height="880" as="geometry" />
        </mxCell>
        <mxCell id="BwTGOBDLKmB829zKvNaI-8" value="" style="rounded=1;whiteSpace=wrap;html=1;fillStyle=auto;opacity=20;fillColor=#d80073;strokeColor=#A50040;fontColor=#ffffff;" parent="BwTGOBDLKmB829zKvNaI-1" vertex="1">
          <mxGeometry x="660.47" y="-180" width="109.53" height="890" as="geometry" />
        </mxCell>
        <mxCell id="BwTGOBDLKmB829zKvNaI-9" value="" style="rounded=1;whiteSpace=wrap;html=1;fillStyle=auto;opacity=50;fillColor=#dae8fc;strokeColor=#6c8ebf;" parent="BwTGOBDLKmB829zKvNaI-1" vertex="1">
          <mxGeometry x="-30" y="-50" width="920" height="130" as="geometry" />
        </mxCell>
        <mxCell id="BwTGOBDLKmB829zKvNaI-10" value="" style="rounded=1;whiteSpace=wrap;html=1;fillStyle=auto;opacity=50;fillColor=#f8cecc;strokeColor=#b85450;" parent="BwTGOBDLKmB829zKvNaI-1" vertex="1">
          <mxGeometry x="-30" y="480" width="920" height="120" as="geometry" />
        </mxCell>
        <mxCell id="BwTGOBDLKmB829zKvNaI-11" value="" style="rounded=1;whiteSpace=wrap;html=1;fillStyle=auto;opacity=50;fillColor=#d5e8d4;strokeColor=#82b366;" parent="BwTGOBDLKmB829zKvNaI-1" vertex="1">
          <mxGeometry x="-30" y="280" width="920" height="190" as="geometry" />
        </mxCell>
        <mxCell id="BwTGOBDLKmB829zKvNaI-12" value="Darossi" style="sketch=0;pointerEvents=1;shadow=0;dashed=0;html=1;strokeColor=default;labelPosition=center;verticalLabelPosition=bottom;verticalAlign=top;outlineConnect=0;align=center;shape=mxgraph.office.users.user;fillColor=#FF6666;" parent="BwTGOBDLKmB829zKvNaI-1" vertex="1">
          <mxGeometry x="453" y="509.38" width="40" height="40" as="geometry" />
        </mxCell>
        <mxCell id="BwTGOBDLKmB829zKvNaI-14" value="&lt;font color=&quot;#000000&quot;&gt;Leonardo&lt;/font&gt;" style="sketch=0;pointerEvents=1;shadow=0;dashed=0;html=1;strokeColor=#001DBC;labelPosition=center;verticalLabelPosition=bottom;verticalAlign=top;outlineConnect=0;align=center;shape=mxgraph.office.users.user;fillColor=#0050ef;fontColor=#FFFFFF;" parent="BwTGOBDLKmB829zKvNaI-1" vertex="1">
          <mxGeometry x="451.5" y="-9.970000000000027" width="40" height="40" as="geometry" />
        </mxCell>
        <mxCell id="BwTGOBDLKmB829zKvNaI-15" value="&lt;font color=&quot;#000000&quot;&gt;Guilherme&lt;/font&gt;" style="sketch=0;pointerEvents=1;shadow=0;dashed=0;html=1;strokeColor=default;fillColor=#d80073;labelPosition=center;verticalLabelPosition=bottom;verticalAlign=top;outlineConnect=0;align=center;shape=mxgraph.office.users.administrator;fontColor=#ffffff;" parent="BwTGOBDLKmB829zKvNaI-1" vertex="1">
          <mxGeometry x="695.24" y="-130" width="44.76" height="40" as="geometry" />
        </mxCell>
        <mxCell id="BwTGOBDLKmB829zKvNaI-16" value="Análise" style="rounded=1;whiteSpace=wrap;html=1;fontSize=10;" parent="BwTGOBDLKmB829zKvNaI-1" vertex="1">
          <mxGeometry x="374" y="-160" width="40" height="20" as="geometry" />
        </mxCell>
        <mxCell id="BwTGOBDLKmB829zKvNaI-17" value="Arquitetura" style="rounded=1;whiteSpace=wrap;html=1;fontSize=9;" parent="BwTGOBDLKmB829zKvNaI-1" vertex="1">
          <mxGeometry x="275" y="-160" width="60" height="20" as="geometry" />
        </mxCell>
        <mxCell id="BwTGOBDLKmB829zKvNaI-18" value="B3" style="rounded=1;whiteSpace=wrap;html=1;fontSize=10;" parent="BwTGOBDLKmB829zKvNaI-1" vertex="1">
          <mxGeometry x="-70" y="549.38" width="80" height="20" as="geometry" />
        </mxCell>
        <mxCell id="BwTGOBDLKmB829zKvNaI-20" value="TSM" style="rounded=1;whiteSpace=wrap;html=1;fontSize=10;" parent="BwTGOBDLKmB829zKvNaI-1" vertex="1">
          <mxGeometry x="-70" y="353" width="80" height="20" as="geometry" />
        </mxCell>
        <mxCell id="BwTGOBDLKmB829zKvNaI-21" value="GPED" style="rounded=1;whiteSpace=wrap;html=1;fontSize=10;" parent="BwTGOBDLKmB829zKvNaI-1" vertex="1">
          <mxGeometry x="-70" y="509.38" width="80" height="20" as="geometry" />
        </mxCell>
        <mxCell id="BwTGOBDLKmB829zKvNaI-23" value="Totem" style="rounded=1;whiteSpace=wrap;html=1;fontSize=10;" parent="BwTGOBDLKmB829zKvNaI-1" vertex="1">
          <mxGeometry x="-70" y="-4.72" width="80" height="20" as="geometry" />
        </mxCell>
        <mxCell id="BwTGOBDLKmB829zKvNaI-24" value="Painel Chamadas" style="rounded=1;whiteSpace=wrap;html=1;fontSize=9;" parent="BwTGOBDLKmB829zKvNaI-1" vertex="1">
          <mxGeometry x="-70" y="-25.29" width="80" height="20" as="geometry" />
        </mxCell>
        <mxCell id="BwTGOBDLKmB829zKvNaI-27" value="Sustentação" style="rounded=1;whiteSpace=wrap;html=1;fillColor=#FFFFFF;fontSize=9;" parent="BwTGOBDLKmB829zKvNaI-1" vertex="1">
          <mxGeometry x="685.24" y="-170" width="60" height="20" as="geometry" />
        </mxCell>
        <mxCell id="BwTGOBDLKmB829zKvNaI-29" value="PM" style="rounded=1;whiteSpace=wrap;html=1;fontSize=9;" parent="BwTGOBDLKmB829zKvNaI-1" vertex="1">
          <mxGeometry x="101" y="-160" width="40" height="20" as="geometry" />
        </mxCell>
        <mxCell id="BwTGOBDLKmB829zKvNaI-30" value="PD" style="rounded=1;whiteSpace=wrap;html=1;fontSize=9;" parent="BwTGOBDLKmB829zKvNaI-1" vertex="1">
          <mxGeometry x="185" y="-160" width="40" height="20" as="geometry" />
        </mxCell>
        <mxCell id="BwTGOBDLKmB829zKvNaI-31" value="Luis Felipe" style="sketch=0;pointerEvents=1;shadow=0;dashed=0;html=1;labelPosition=center;verticalLabelPosition=bottom;verticalAlign=top;outlineConnect=0;align=center;shape=mxgraph.office.users.user;fillColor=#FFFF00;" parent="BwTGOBDLKmB829zKvNaI-1" vertex="1">
          <mxGeometry x="141" y="503" width="40" height="40" as="geometry" />
        </mxCell>
        <mxCell id="BwTGOBDLKmB829zKvNaI-32" value="Mathias" style="sketch=0;pointerEvents=1;shadow=0;dashed=0;html=1;labelPosition=center;verticalLabelPosition=bottom;verticalAlign=top;outlineConnect=0;align=center;shape=mxgraph.office.users.user;fillColor=#FFFF00;" parent="BwTGOBDLKmB829zKvNaI-1" vertex="1">
          <mxGeometry x="377" y="376" width="40" height="40" as="geometry" />
        </mxCell>
        <mxCell id="BwTGOBDLKmB829zKvNaI-33" value="André" style="sketch=0;pointerEvents=1;shadow=0;dashed=0;html=1;labelPosition=center;verticalLabelPosition=bottom;verticalAlign=top;outlineConnect=0;align=center;shape=mxgraph.office.users.user;fillColor=#f0a30a;fontColor=#000000;strokeColor=#000000;" parent="BwTGOBDLKmB829zKvNaI-1" vertex="1">
          <mxGeometry x="185" y="370" width="40" height="40" as="geometry" />
        </mxCell>
        <mxCell id="BwTGOBDLKmB829zKvNaI-36" value="BID" style="rounded=1;whiteSpace=wrap;html=1;fontSize=10;" parent="BwTGOBDLKmB829zKvNaI-1" vertex="1">
          <mxGeometry x="-70" y="529.38" width="80" height="20" as="geometry" />
        </mxCell>
        <mxCell id="BwTGOBDLKmB829zKvNaI-37" value="TOS / Cacesso" style="rounded=1;whiteSpace=wrap;html=1;fontSize=10;" parent="BwTGOBDLKmB829zKvNaI-1" vertex="1">
          <mxGeometry x="-70" y="35.28" width="80" height="20" as="geometry" />
        </mxCell>
        <mxCell id="BwTGOBDLKmB829zKvNaI-38" value="" style="rounded=1;whiteSpace=wrap;html=1;fillStyle=auto;opacity=20;fillColor=#1ba1e2;strokeColor=#006EAF;fontColor=#ffffff;" parent="BwTGOBDLKmB829zKvNaI-1" vertex="1">
          <mxGeometry x="790" y="-180" width="70" height="890" as="geometry" />
        </mxCell>
        <mxCell id="BwTGOBDLKmB829zKvNaI-39" value="QA" style="rounded=1;whiteSpace=wrap;html=1;fillColor=#FFFFFF;fontSize=9;" parent="BwTGOBDLKmB829zKvNaI-1" vertex="1">
          <mxGeometry x="800" y="-170" width="50" height="20" as="geometry" />
        </mxCell>
        <mxCell id="BwTGOBDLKmB829zKvNaI-45" value="&lt;font color=&quot;#000000&quot;&gt;Rafael&lt;/font&gt;" style="sketch=0;pointerEvents=1;shadow=0;dashed=0;html=1;labelPosition=center;verticalLabelPosition=bottom;verticalAlign=top;outlineConnect=0;align=center;shape=mxgraph.office.users.user;fillColor=#66B2FF;fontColor=#ffffff;strokeColor=#000000;" parent="BwTGOBDLKmB829zKvNaI-1" vertex="1">
          <mxGeometry x="805" y="499.38" width="40" height="40" as="geometry" />
        </mxCell>
        <mxCell id="BwTGOBDLKmB829zKvNaI-46" value="&lt;font color=&quot;#000000&quot;&gt;Lúcia&lt;/font&gt;" style="sketch=0;pointerEvents=1;shadow=0;dashed=0;html=1;labelPosition=center;verticalLabelPosition=bottom;verticalAlign=top;outlineConnect=0;align=center;shape=mxgraph.office.users.user;fillColor=#66B2FF;fontColor=#ffffff;strokeColor=#000000;" parent="BwTGOBDLKmB829zKvNaI-1" vertex="1">
          <mxGeometry x="805" y="300" width="40" height="40" as="geometry" />
        </mxCell>
        <mxCell id="BwTGOBDLKmB829zKvNaI-47" value="&lt;font color=&quot;#000000&quot;&gt;João&lt;/font&gt;" style="sketch=0;pointerEvents=1;shadow=0;dashed=0;html=1;labelPosition=center;verticalLabelPosition=bottom;verticalAlign=top;outlineConnect=0;align=center;shape=mxgraph.office.users.user;fillColor=#66B2FF;fontColor=#ffffff;strokeColor=#000000;" parent="BwTGOBDLKmB829zKvNaI-1" vertex="1">
          <mxGeometry x="805" y="390" width="40" height="40" as="geometry" />
        </mxCell>
        <mxCell id="BwTGOBDLKmB829zKvNaI-48" value="[SAAGRA] Ailem" style="rounded=1;whiteSpace=wrap;html=1;fontSize=11;align=left;" parent="BwTGOBDLKmB829zKvNaI-1" vertex="1">
          <mxGeometry x="530" y="-30.57000000000005" width="90" height="20" as="geometry" />
        </mxCell>
        <mxCell id="BwTGOBDLKmB829zKvNaI-52" value="[B3] Marcelo" style="rounded=1;whiteSpace=wrap;html=1;fontSize=11;align=left;" parent="BwTGOBDLKmB829zKvNaI-1" vertex="1">
          <mxGeometry x="550" y="499.38" width="90" height="20" as="geometry" />
        </mxCell>
        <mxCell id="BwTGOBDLKmB829zKvNaI-53" value="[B3] Moises" style="rounded=1;whiteSpace=wrap;html=1;fontSize=11;align=left;" parent="BwTGOBDLKmB829zKvNaI-1" vertex="1">
          <mxGeometry x="612.06" y="519.38" width="90" height="20" as="geometry" />
        </mxCell>
        <mxCell id="BwTGOBDLKmB829zKvNaI-59" value="[BID/GP] Bielski" style="rounded=1;whiteSpace=wrap;html=1;fontSize=11;align=left;" parent="BwTGOBDLKmB829zKvNaI-1" vertex="1">
          <mxGeometry x="550" y="539.38" width="100" height="20" as="geometry" />
        </mxCell>
        <mxCell id="BwTGOBDLKmB829zKvNaI-60" value="[BID/GP] Everton" style="rounded=1;whiteSpace=wrap;html=1;fontSize=11;align=left;" parent="BwTGOBDLKmB829zKvNaI-1" vertex="1">
          <mxGeometry x="610" y="559.38" width="90" height="20" as="geometry" />
        </mxCell>
        <mxCell id="BwTGOBDLKmB829zKvNaI-61" value="[TSM] Schram" style="rounded=1;whiteSpace=wrap;html=1;fontSize=11;align=left;" parent="BwTGOBDLKmB829zKvNaI-1" vertex="1">
          <mxGeometry x="530" y="350" width="90" height="20" as="geometry" />
        </mxCell>
        <mxCell id="BwTGOBDLKmB829zKvNaI-62" value="[TSM] Anderson" style="rounded=1;whiteSpace=wrap;html=1;fontSize=11;align=left;" parent="BwTGOBDLKmB829zKvNaI-1" vertex="1">
          <mxGeometry x="530" y="370" width="90" height="20" as="geometry" />
        </mxCell>
        <mxCell id="BwTGOBDLKmB829zKvNaI-63" value="[TSM] André B." style="rounded=1;whiteSpace=wrap;html=1;fontSize=11;align=left;" parent="BwTGOBDLKmB829zKvNaI-1" vertex="1">
          <mxGeometry x="530" y="390" width="90" height="20" as="geometry" />
        </mxCell>
        <mxCell id="BwTGOBDLKmB829zKvNaI-64" value="[TSM] Mateus A." style="rounded=1;whiteSpace=wrap;html=1;fontSize=11;align=left;" parent="BwTGOBDLKmB829zKvNaI-1" vertex="1">
          <mxGeometry x="530" y="410" width="90" height="20" as="geometry" />
        </mxCell>
        <mxCell id="BwTGOBDLKmB829zKvNaI-65" value="[TSM] Nicolas" style="rounded=1;whiteSpace=wrap;html=1;fontSize=11;align=left;" parent="BwTGOBDLKmB829zKvNaI-1" vertex="1">
          <mxGeometry x="530" y="430" width="90" height="20" as="geometry" />
        </mxCell>
        <mxCell id="BwTGOBDLKmB829zKvNaI-68" value="[TSM] Edgar" style="rounded=1;whiteSpace=wrap;html=1;fontSize=11;align=left;" parent="BwTGOBDLKmB829zKvNaI-1" vertex="1">
          <mxGeometry x="610" y="290" width="92.06" height="20" as="geometry" />
        </mxCell>
        <mxCell id="BwTGOBDLKmB829zKvNaI-70" value="[GTM] Luiz" style="rounded=1;whiteSpace=wrap;html=1;fontSize=11;align=left;" parent="BwTGOBDLKmB829zKvNaI-1" vertex="1">
          <mxGeometry x="530" y="49.99999999999988" width="90" height="20" as="geometry" />
        </mxCell>
        <mxCell id="BwTGOBDLKmB829zKvNaI-71" value="[GTM] Luciano" style="rounded=1;whiteSpace=wrap;html=1;fontSize=11;align=left;" parent="BwTGOBDLKmB829zKvNaI-1" vertex="1">
          <mxGeometry x="530" y="30.02999999999988" width="90" height="20" as="geometry" />
        </mxCell>
        <mxCell id="BwTGOBDLKmB829zKvNaI-73" value="GTM" style="rounded=1;whiteSpace=wrap;html=1;fontSize=10;" parent="BwTGOBDLKmB829zKvNaI-1" vertex="1">
          <mxGeometry x="-70" y="55.280000000000115" width="80" height="20" as="geometry" />
        </mxCell>
        <mxCell id="BwTGOBDLKmB829zKvNaI-74" value="SAAGRA" style="rounded=1;whiteSpace=wrap;html=1;fontSize=10;" parent="BwTGOBDLKmB829zKvNaI-1" vertex="1">
          <mxGeometry x="-70" y="15.280000000000115" width="80" height="20" as="geometry" />
        </mxCell>
        <mxCell id="BwTGOBDLKmB829zKvNaI-77" value="[TSM] Henrique" style="rounded=1;whiteSpace=wrap;html=1;fontSize=11;align=left;" parent="BwTGOBDLKmB829zKvNaI-1" vertex="1">
          <mxGeometry x="530" y="330" width="90" height="20" as="geometry" />
        </mxCell>
        <mxCell id="BwTGOBDLKmB829zKvNaI-78" value="[TSM] Guiliver" style="rounded=1;whiteSpace=wrap;html=1;fontSize=11;align=left;fillColor=#FFFFFF;strokeColor=#005700;fontColor=#000000;" parent="BwTGOBDLKmB829zKvNaI-1" vertex="1">
          <mxGeometry x="530" y="310" width="90" height="20" as="geometry" />
        </mxCell>
        <mxCell id="wSVpUC4G1-jql-p4bBiF-1" value="Marco" style="sketch=0;pointerEvents=1;shadow=0;dashed=0;html=1;labelPosition=center;verticalLabelPosition=bottom;verticalAlign=top;outlineConnect=0;align=center;shape=mxgraph.office.users.user;fillColor=#FF0000;fontColor=#000000;strokeColor=#000000;strokeWidth=2;perimeterSpacing=0;" parent="BwTGOBDLKmB829zKvNaI-1" vertex="1">
          <mxGeometry x="10" y="-129.99999999999994" width="40" height="40" as="geometry" />
        </mxCell>
        <mxCell id="wSVpUC4G1-jql-p4bBiF-3" value="" style="rounded=1;whiteSpace=wrap;html=1;fillStyle=auto;opacity=50;fillColor=#ffcc99;strokeColor=#36393d;" parent="BwTGOBDLKmB829zKvNaI-1" vertex="1">
          <mxGeometry x="-30" y="610" width="920" height="90" as="geometry" />
        </mxCell>
        <mxCell id="BwTGOBDLKmB829zKvNaI-50" value="[YMS] Eberson" style="rounded=1;whiteSpace=wrap;html=1;fontSize=11;align=left;" parent="BwTGOBDLKmB829zKvNaI-1" vertex="1">
          <mxGeometry x="612.06" y="635" width="90" height="20" as="geometry" />
        </mxCell>
        <mxCell id="BwTGOBDLKmB829zKvNaI-51" value="[Rota] Gabriel" style="rounded=1;whiteSpace=wrap;html=1;fontSize=11;align=left;" parent="BwTGOBDLKmB829zKvNaI-1" vertex="1">
          <mxGeometry x="612.06" y="655" width="90" height="20" as="geometry" />
        </mxCell>
        <mxCell id="BwTGOBDLKmB829zKvNaI-40" value="Daniel" style="sketch=0;pointerEvents=1;shadow=0;dashed=0;html=1;labelPosition=center;verticalLabelPosition=bottom;verticalAlign=top;outlineConnect=0;align=center;shape=mxgraph.office.users.user;fillColor=#969696;" parent="BwTGOBDLKmB829zKvNaI-1" vertex="1">
          <mxGeometry x="270" y="605" width="40" height="40" as="geometry" />
        </mxCell>
        <mxCell id="BwTGOBDLKmB829zKvNaI-44" value="Menon" style="sketch=0;pointerEvents=1;shadow=0;dashed=0;html=1;labelPosition=center;verticalLabelPosition=bottom;verticalAlign=top;outlineConnect=0;align=center;shape=mxgraph.office.users.user;fillColor=#a20025;fontColor=#000000;strokeColor=#000000;" parent="BwTGOBDLKmB829zKvNaI-1" vertex="1">
          <mxGeometry x="145" y="635" width="40" height="40" as="geometry" />
        </mxCell>
        <mxCell id="wSVpUC4G1-jql-p4bBiF-6" value="Pica &lt;br&gt;em QA" style="sketch=0;pointerEvents=1;shadow=0;dashed=0;html=1;labelPosition=center;verticalLabelPosition=bottom;verticalAlign=top;outlineConnect=0;align=center;shape=mxgraph.office.users.user;fillColor=#FF0000;fontColor=#000000;strokeColor=#000000;strokeWidth=2;" parent="BwTGOBDLKmB829zKvNaI-1" vertex="1">
          <mxGeometry x="805" y="-130" width="40" height="40" as="geometry" />
        </mxCell>
        <mxCell id="wSVpUC4G1-jql-p4bBiF-10" value="Twonetti" style="sketch=0;pointerEvents=1;shadow=0;dashed=0;html=1;labelPosition=center;verticalLabelPosition=bottom;verticalAlign=top;outlineConnect=0;align=center;shape=mxgraph.office.users.user;fillColor=#a20025;fontColor=#000000;strokeColor=#000000;" parent="BwTGOBDLKmB829zKvNaI-1" vertex="1">
          <mxGeometry x="1010" y="-300" width="40" height="40" as="geometry" />
        </mxCell>
        <mxCell id="BwTGOBDLKmB829zKvNaI-19" value="YMS" style="rounded=1;whiteSpace=wrap;html=1;fontSize=10;" parent="BwTGOBDLKmB829zKvNaI-1" vertex="1">
          <mxGeometry x="-70" y="670" width="80" height="20" as="geometry" />
        </mxCell>
        <mxCell id="BwTGOBDLKmB829zKvNaI-22" value="Rota Certa" style="rounded=1;whiteSpace=wrap;html=1;fontSize=10;" parent="BwTGOBDLKmB829zKvNaI-1" vertex="1">
          <mxGeometry x="-70" y="635" width="80" height="20" as="geometry" />
        </mxCell>
        <mxCell id="wSVpUC4G1-jql-p4bBiF-23" value="" style="rounded=1;whiteSpace=wrap;html=1;fillStyle=auto;opacity=50;fillColor=#ffcccc;strokeColor=#36393d;" parent="BwTGOBDLKmB829zKvNaI-1" vertex="1">
          <mxGeometry x="-40" y="90" width="930" height="80" as="geometry" />
        </mxCell>
        <mxCell id="BwTGOBDLKmB829zKvNaI-54" value="[RUMO] Matheus" style="rounded=1;whiteSpace=wrap;html=1;fontSize=11;align=left;" parent="BwTGOBDLKmB829zKvNaI-1" vertex="1">
          <mxGeometry x="530" y="120" width="90" height="20" as="geometry" />
        </mxCell>
        <mxCell id="BwTGOBDLKmB829zKvNaI-55" value="[RUMO] Igor" style="rounded=1;whiteSpace=wrap;html=1;fontSize=11;align=left;" parent="BwTGOBDLKmB829zKvNaI-1" vertex="1">
          <mxGeometry x="530" y="140" width="90" height="20" as="geometry" />
        </mxCell>
        <mxCell id="BwTGOBDLKmB829zKvNaI-56" value="[RUMO] Herminio" style="rounded=1;whiteSpace=wrap;html=1;fontSize=11;align=left;" parent="BwTGOBDLKmB829zKvNaI-1" vertex="1">
          <mxGeometry x="530" y="100" width="90" height="20" as="geometry" />
        </mxCell>
        <mxCell id="BwTGOBDLKmB829zKvNaI-76" value="[RUMO] César" style="rounded=1;whiteSpace=wrap;html=1;fontSize=11;align=left;fillColor=#FFFFFF;fontColor=#000000;strokeColor=#005700;" parent="BwTGOBDLKmB829zKvNaI-1" vertex="1">
          <mxGeometry x="620" y="100" width="90" height="20" as="geometry" />
        </mxCell>
        <mxCell id="wSVpUC4G1-jql-p4bBiF-15" value="RUMO" style="rounded=1;whiteSpace=wrap;html=1;fontSize=10;" parent="BwTGOBDLKmB829zKvNaI-1" vertex="1">
          <mxGeometry x="-70" y="120" width="80" height="20" as="geometry" />
        </mxCell>
        <mxCell id="BwTGOBDLKmB829zKvNaI-41" value="Luizão" style="sketch=0;pointerEvents=1;shadow=0;dashed=0;html=1;labelPosition=center;verticalLabelPosition=bottom;verticalAlign=top;outlineConnect=0;align=center;shape=mxgraph.office.users.user;fillColor=#969696;" parent="BwTGOBDLKmB829zKvNaI-1" vertex="1">
          <mxGeometry x="285" y="450" width="40" height="40" as="geometry" />
        </mxCell>
        <mxCell id="wSVpUC4G1-jql-p4bBiF-24" value="" style="rounded=1;whiteSpace=wrap;html=1;fillStyle=auto;opacity=50;fillColor=none;strokeColor=#000000;dashed=1;strokeWidth=3;dashPattern=1 2;arcSize=6;" parent="BwTGOBDLKmB829zKvNaI-1" vertex="1">
          <mxGeometry x="-80" y="90" width="590" height="240" as="geometry" />
        </mxCell>
        <mxCell id="lOGYCRG_QU9Rcd1y9G0N-0" value="Cassiano" style="shape=umlActor;verticalLabelPosition=bottom;verticalAlign=top;html=1;outlineConnect=0;" parent="BwTGOBDLKmB829zKvNaI-1" vertex="1">
          <mxGeometry x="150" y="-300" width="30" height="60" as="geometry" />
        </mxCell>
        <mxCell id="lOGYCRG_QU9Rcd1y9G0N-3" value="Marcelo" style="shape=umlActor;verticalLabelPosition=bottom;verticalAlign=top;html=1;outlineConnect=0;" parent="BwTGOBDLKmB829zKvNaI-1" vertex="1">
          <mxGeometry x="466" y="-300" width="30" height="60" as="geometry" />
        </mxCell>
        <mxCell id="lOGYCRG_QU9Rcd1y9G0N-6" value="Fábio" style="sketch=0;pointerEvents=1;shadow=0;dashed=0;html=1;labelPosition=center;verticalLabelPosition=bottom;verticalAlign=top;outlineConnect=0;align=center;shape=mxgraph.office.users.user;fillColor=#969696;" parent="BwTGOBDLKmB829zKvNaI-1" vertex="1">
          <mxGeometry x="285" y="533" width="40" height="40" as="geometry" />
        </mxCell>
        <mxCell id="lOGYCRG_QU9Rcd1y9G0N-9" value="" style="rounded=1;whiteSpace=wrap;html=1;fillStyle=auto;opacity=50;fillColor=#ffcccc;strokeColor=#36393d;" parent="BwTGOBDLKmB829zKvNaI-1" vertex="1">
          <mxGeometry x="-40" y="180" width="930" height="80" as="geometry" />
        </mxCell>
        <mxCell id="BwTGOBDLKmB829zKvNaI-57" value="[Mosaic] Murilo" style="rounded=1;whiteSpace=wrap;html=1;fontSize=11;align=left;" parent="BwTGOBDLKmB829zKvNaI-1" vertex="1">
          <mxGeometry x="530" y="190" width="90" height="20" as="geometry" />
        </mxCell>
        <mxCell id="BwTGOBDLKmB829zKvNaI-58" value="[Mosaic] Serafim" style="rounded=1;whiteSpace=wrap;html=1;fontSize=11;align=left;" parent="BwTGOBDLKmB829zKvNaI-1" vertex="1">
          <mxGeometry x="530" y="210" width="90" height="20" as="geometry" />
        </mxCell>
        <mxCell id="BwTGOBDLKmB829zKvNaI-69" value="[Mosaic] Dalssoto" style="rounded=1;whiteSpace=wrap;html=1;fontSize=11;align=left;" parent="BwTGOBDLKmB829zKvNaI-1" vertex="1">
          <mxGeometry x="620.0000000000002" y="190" width="90" height="20" as="geometry" />
        </mxCell>
        <mxCell id="wSVpUC4G1-jql-p4bBiF-16" value="Mosaic" style="rounded=1;whiteSpace=wrap;html=1;fontSize=10;" parent="BwTGOBDLKmB829zKvNaI-1" vertex="1">
          <mxGeometry x="-70" y="200" width="80" height="20" as="geometry" />
        </mxCell>
        <mxCell id="BwTGOBDLKmB829zKvNaI-13" value="Gabriel" style="sketch=0;pointerEvents=1;shadow=0;dashed=0;html=1;strokeColor=default;labelPosition=center;verticalLabelPosition=bottom;verticalAlign=top;outlineConnect=0;align=center;shape=mxgraph.office.users.user;fillColor=#97D077;" parent="BwTGOBDLKmB829zKvNaI-1" vertex="1">
          <mxGeometry x="450" y="250" width="43" height="40" as="geometry" />
        </mxCell>
        <mxCell id="BwTGOBDLKmB829zKvNaI-43" value="Aldir" style="sketch=0;pointerEvents=1;shadow=0;dashed=0;html=1;labelPosition=center;verticalLabelPosition=bottom;verticalAlign=top;outlineConnect=0;align=center;shape=mxgraph.office.users.user;fillColor=#FFFF00;" parent="BwTGOBDLKmB829zKvNaI-1" vertex="1">
          <mxGeometry x="377" y="200" width="40" height="40" as="geometry" />
        </mxCell>
        <mxCell id="BwTGOBDLKmB829zKvNaI-34" value="Alessandro" style="sketch=0;pointerEvents=1;shadow=0;dashed=0;html=1;labelPosition=center;verticalLabelPosition=bottom;verticalAlign=top;outlineConnect=0;align=center;shape=mxgraph.office.users.user;fillColor=#a20025;fontColor=#000000;strokeColor=#000000;" parent="BwTGOBDLKmB829zKvNaI-1" vertex="1">
          <mxGeometry x="101" y="250" width="40" height="40" as="geometry" />
        </mxCell>
        <mxCell id="GbhkMTNlJ3ugjdOSKGZ8-0" value="&lt;font color=&quot;#000000&quot;&gt;Felipe&lt;/font&gt;" style="sketch=0;pointerEvents=1;shadow=0;dashed=0;html=1;strokeColor=default;fillColor=#d80073;labelPosition=center;verticalLabelPosition=bottom;verticalAlign=top;outlineConnect=0;align=center;shape=mxgraph.office.users.administrator;fontColor=#ffffff;" parent="BwTGOBDLKmB829zKvNaI-1" vertex="1">
          <mxGeometry x="680.0000000000001" y="-29.97" width="44.76" height="40" as="geometry" />
        </mxCell>
        <mxCell id="GbhkMTNlJ3ugjdOSKGZ8-1" value="&lt;font color=&quot;#000000&quot;&gt;Derick&lt;/font&gt;" style="sketch=0;pointerEvents=1;shadow=0;dashed=0;html=1;strokeColor=default;fillColor=#d80073;labelPosition=center;verticalLabelPosition=bottom;verticalAlign=top;outlineConnect=0;align=center;shape=mxgraph.office.users.administrator;fontColor=#ffffff;" parent="BwTGOBDLKmB829zKvNaI-1" vertex="1">
          <mxGeometry x="720.0000000000001" y="20.000000000000004" width="44.76" height="40" as="geometry" />
        </mxCell>
        <mxCell id="GbhkMTNlJ3ugjdOSKGZ8-3" value="[TOS] Samuel" style="rounded=1;whiteSpace=wrap;html=1;fontSize=11;align=left;" parent="BwTGOBDLKmB829zKvNaI-1" vertex="1">
          <mxGeometry x="530" y="9.99999999999988" width="90" height="20" as="geometry" />
        </mxCell>
        <mxCell id="BwTGOBDLKmB829zKvNaI-72" value="[TOS] Eduardo" style="rounded=1;whiteSpace=wrap;html=1;fontSize=11;align=left;" parent="BwTGOBDLKmB829zKvNaI-1" vertex="1">
          <mxGeometry x="530" y="-10.57000000000005" width="90" height="20" as="geometry" />
        </mxCell>
        <mxCell id="p_jm9Q_zIV6ey1Bg55_A-0" value="André" style="sketch=0;pointerEvents=1;shadow=0;dashed=0;html=1;labelPosition=center;verticalLabelPosition=bottom;verticalAlign=top;outlineConnect=0;align=center;shape=mxgraph.office.users.user;fillColor=#969696;" vertex="1" parent="BwTGOBDLKmB829zKvNaI-1">
          <mxGeometry x="300" y="645" width="40" height="40" as="geometry" />
        </mxCell>
        <mxCell id="p_jm9Q_zIV6ey1Bg55_A-1" value="Arquitetura" style="rounded=1;whiteSpace=wrap;html=1;fontSize=26;strokeWidth=6;spacing=7;" vertex="1" parent="BwTGOBDLKmB829zKvNaI-1">
          <mxGeometry x="-390" y="30" width="180" height="110" as="geometry" />
        </mxCell>
        <mxCell id="Wfn7Y8JTnrwyUaiLjk44-0" value="Automaçao" style="rounded=1;whiteSpace=wrap;html=1;fontSize=10;" vertex="1" parent="BwTGOBDLKmB829zKvNaI-1">
          <mxGeometry x="-70" y="-45.289999999999885" width="80" height="20" as="geometry" />
        </mxCell>
      </root>
    </mxGraphModel>
  </diagram>
  <diagram id="llfe9ZtXLAMn4oSuTSUi" name="Página-6">
    <mxGraphModel dx="2192" dy="743" grid="1" gridSize="10" guides="1" tooltips="1" connect="1" arrows="1" fold="1" page="1" pageScale="1" pageWidth="827" pageHeight="1169" math="0" shadow="0">
      <root>
        <mxCell id="0" />
        <mxCell id="1" parent="0" />
        <mxCell id="i7AzqlCk7zLzLWWXh7h9-1" value="B3" style="rounded=0;whiteSpace=wrap;html=1;" vertex="1" parent="1">
          <mxGeometry x="-30" y="155" width="80" height="60" as="geometry" />
        </mxCell>
        <mxCell id="i7AzqlCk7zLzLWWXh7h9-2" value="YMS" style="rounded=0;whiteSpace=wrap;html=1;" vertex="1" parent="1">
          <mxGeometry x="-30" y="230" width="80" height="60" as="geometry" />
        </mxCell>
        <mxCell id="i7AzqlCk7zLzLWWXh7h9-3" value="Evolução" style="rounded=0;whiteSpace=wrap;html=1;" vertex="1" parent="1">
          <mxGeometry x="70" y="155" width="120" height="30" as="geometry" />
        </mxCell>
        <mxCell id="i7AzqlCk7zLzLWWXh7h9-4" value="Sustentação" style="rounded=0;whiteSpace=wrap;html=1;" vertex="1" parent="1">
          <mxGeometry x="70" y="185" width="820" height="30" as="geometry" />
        </mxCell>
        <mxCell id="i7AzqlCk7zLzLWWXh7h9-5" value="1 /24" style="rounded=0;whiteSpace=wrap;html=1;" vertex="1" parent="1">
          <mxGeometry x="70" y="10" width="120" height="60" as="geometry" />
        </mxCell>
        <mxCell id="i7AzqlCk7zLzLWWXh7h9-6" value="2 /24" style="rounded=0;whiteSpace=wrap;html=1;" vertex="1" parent="1">
          <mxGeometry x="210" y="10" width="120" height="60" as="geometry" />
        </mxCell>
        <mxCell id="i7AzqlCk7zLzLWWXh7h9-7" value="1 /25" style="rounded=0;whiteSpace=wrap;html=1;" vertex="1" parent="1">
          <mxGeometry x="350" y="10" width="120" height="60" as="geometry" />
        </mxCell>
        <mxCell id="i7AzqlCk7zLzLWWXh7h9-8" value="2 /25" style="rounded=0;whiteSpace=wrap;html=1;" vertex="1" parent="1">
          <mxGeometry x="490" y="10" width="120" height="60" as="geometry" />
        </mxCell>
        <mxCell id="i7AzqlCk7zLzLWWXh7h9-9" value="1 /26" style="rounded=0;whiteSpace=wrap;html=1;" vertex="1" parent="1">
          <mxGeometry x="630" y="10" width="120" height="60" as="geometry" />
        </mxCell>
        <mxCell id="i7AzqlCk7zLzLWWXh7h9-10" value="2 /26" style="rounded=0;whiteSpace=wrap;html=1;" vertex="1" parent="1">
          <mxGeometry x="770" y="10" width="120" height="60" as="geometry" />
        </mxCell>
        <mxCell id="i7AzqlCk7zLzLWWXh7h9-16" value="Evolução" style="rounded=0;whiteSpace=wrap;html=1;" vertex="1" parent="1">
          <mxGeometry x="70" y="230" width="820" height="30" as="geometry" />
        </mxCell>
        <mxCell id="i7AzqlCk7zLzLWWXh7h9-17" value="Sustentação" style="rounded=0;whiteSpace=wrap;html=1;" vertex="1" parent="1">
          <mxGeometry x="70" y="260" width="820" height="30" as="geometry" />
        </mxCell>
        <mxCell id="i7AzqlCk7zLzLWWXh7h9-18" value="SAAGRA" style="rounded=0;whiteSpace=wrap;html=1;" vertex="1" parent="1">
          <mxGeometry x="-30" y="300" width="80" height="60" as="geometry" />
        </mxCell>
        <mxCell id="i7AzqlCk7zLzLWWXh7h9-19" value="GTM" style="rounded=0;whiteSpace=wrap;html=1;" vertex="1" parent="1">
          <mxGeometry x="-30" y="374" width="80" height="60" as="geometry" />
        </mxCell>
        <mxCell id="i7AzqlCk7zLzLWWXh7h9-20" value="Evolução" style="rounded=0;whiteSpace=wrap;html=1;" vertex="1" parent="1">
          <mxGeometry x="70" y="310" width="400" height="20" as="geometry" />
        </mxCell>
        <mxCell id="i7AzqlCk7zLzLWWXh7h9-21" value="Sustentação" style="rounded=0;whiteSpace=wrap;html=1;" vertex="1" parent="1">
          <mxGeometry x="70" y="330" width="820" height="30" as="geometry" />
        </mxCell>
        <mxCell id="i7AzqlCk7zLzLWWXh7h9-22" value="Evolução" style="rounded=0;whiteSpace=wrap;html=1;" vertex="1" parent="1">
          <mxGeometry x="70" y="374" width="400" height="30" as="geometry" />
        </mxCell>
        <mxCell id="i7AzqlCk7zLzLWWXh7h9-23" value="Sustentação" style="rounded=0;whiteSpace=wrap;html=1;" vertex="1" parent="1">
          <mxGeometry x="70" y="404" width="820" height="30" as="geometry" />
        </mxCell>
        <mxCell id="i7AzqlCk7zLzLWWXh7h9-24" value="Modulo ESTOQUE&lt;br&gt;&quot;Saagra&quot;" style="rounded=0;whiteSpace=wrap;html=1;" vertex="1" parent="1">
          <mxGeometry x="-30" y="450" width="80" height="60" as="geometry" />
        </mxCell>
        <mxCell id="i7AzqlCk7zLzLWWXh7h9-25" value="DESEVNVOLVER" style="rounded=0;whiteSpace=wrap;html=1;" vertex="1" parent="1">
          <mxGeometry x="220" y="450" width="250" height="30" as="geometry" />
        </mxCell>
        <mxCell id="i7AzqlCk7zLzLWWXh7h9-26" value="Sustentação" style="rounded=0;whiteSpace=wrap;html=1;" vertex="1" parent="1">
          <mxGeometry x="470" y="480" width="420" height="30" as="geometry" />
        </mxCell>
        <mxCell id="i7AzqlCk7zLzLWWXh7h9-27" value="Evolução" style="rounded=0;whiteSpace=wrap;html=1;" vertex="1" parent="1">
          <mxGeometry x="470" y="450" width="420" height="30" as="geometry" />
        </mxCell>
        <mxCell id="i7AzqlCk7zLzLWWXh7h9-28" value="ROTA &lt;br&gt;CERTA" style="rounded=0;whiteSpace=wrap;html=1;" vertex="1" parent="1">
          <mxGeometry x="-30" y="530" width="80" height="60" as="geometry" />
        </mxCell>
        <mxCell id="i7AzqlCk7zLzLWWXh7h9-29" value="Evolução" style="rounded=0;whiteSpace=wrap;html=1;" vertex="1" parent="1">
          <mxGeometry x="70" y="530" width="820" height="30" as="geometry" />
        </mxCell>
        <mxCell id="i7AzqlCk7zLzLWWXh7h9-30" value="Sustentação" style="rounded=0;whiteSpace=wrap;html=1;" vertex="1" parent="1">
          <mxGeometry x="70" y="560" width="820" height="30" as="geometry" />
        </mxCell>
        <mxCell id="i7AzqlCk7zLzLWWXh7h9-31" value="Módulo&lt;br&gt;Autoamção" style="rounded=0;whiteSpace=wrap;html=1;" vertex="1" parent="1">
          <mxGeometry x="-30" y="610" width="80" height="60" as="geometry" />
        </mxCell>
        <mxCell id="i7AzqlCk7zLzLWWXh7h9-32" value="DESEVNVOLVER" style="rounded=0;whiteSpace=wrap;html=1;" vertex="1" parent="1">
          <mxGeometry x="70" y="610" width="120" height="30" as="geometry" />
        </mxCell>
        <mxCell id="i7AzqlCk7zLzLWWXh7h9-33" value="Sustentação" style="rounded=0;whiteSpace=wrap;html=1;" vertex="1" parent="1">
          <mxGeometry x="190" y="640" width="700" height="30" as="geometry" />
        </mxCell>
        <mxCell id="i7AzqlCk7zLzLWWXh7h9-34" value="Evolução" style="rounded=0;whiteSpace=wrap;html=1;" vertex="1" parent="1">
          <mxGeometry x="190" y="610" width="700" height="30" as="geometry" />
        </mxCell>
        <mxCell id="aqOEL8mogyBUNApZCWfx-1" value="TOS" style="rounded=0;whiteSpace=wrap;html=1;" vertex="1" parent="1">
          <mxGeometry x="-30" y="80" width="80" height="60" as="geometry" />
        </mxCell>
        <mxCell id="aqOEL8mogyBUNApZCWfx-2" value="Sustentação" style="rounded=0;whiteSpace=wrap;html=1;" vertex="1" parent="1">
          <mxGeometry x="70" y="110" width="820" height="30" as="geometry" />
        </mxCell>
      </root>
    </mxGraphModel>
  </diagram>
</mxfile>
